<?xml version="1.0" encoding="iso-8859-1"?>
<!-- Generator: Adobe Illustrator 16.0.0, SVG Export Plug-In . SVG Version: 6.00 Build 0)  -->
<!DOCTYPE svg PUBLIC "-//W3C//DTD SVG 1.1//EN" "http://www.w3.org/Graphics/SVG/1.1/DTD/svg11.dtd">
<svg version="1.1" id="Capa_1" xmlns="http://www.w3.org/2000/svg" xmlns:xlink="http://www.w3.org/1999/xlink" x="0px" y="0px"
	 width="196.099px" height="196.099px" viewBox="0 0 196.099 196.099" style="enable-background:new 0 0 196.099 196.099;"
	 xml:space="preserve">
<g>
	<path d="M195.812,106.351c-1.308-7.31-7.921-12.271-15.161-11.839c1.134-2.972,2.584-8.512-0.253-13.107
		c-1.202-1.922-3.46-2.905-5.438-3.768c-1.534-0.665-3.127-1.363-3.454-2.215c-0.242-0.614,0.032-1.042,0.749-1.933
		c0.58-0.747,1.577-1.962,0.728-3.338c-1.529-2.473-6.238-2.365-10.325,0.158c-4.287,2.645-6.328,6.597-4.751,9.152
		c0.242,0.383,0.807,1.031,1.967,1.031c0.453,0,0.912-0.098,1.35-0.19c0.834-0.187,1.593-0.33,2.073,0.201
		c0.611,0.669,0.527,2.396,0.442,4.071c-0.116,2.162-0.237,4.612,0.949,6.549c3.649,5.898,12.003,6.191,13.638,6.191
		c0.01,0,0.247,0,0.258,0c0.138-0.005,0.27-0.077,0.391-0.121c0.158,0.028,0.29,0.121,0.442,0.107
		c6.455-1.165,12.572,3.127,13.732,9.545c0.733,4.04-0.232,8.279-2.61,11.623c-1.498,2.109-3.491,3.67-5.748,4.698
		c0.021-0.011,0.042-0.021,0.068-0.031c5.01-3.981,5.849-11.333,1.856-16.343c-3.291-4.14-9.345-4.814-13.458-1.519
		c-3.422,2.722-3.986,7.731-1.255,11.132c2.272,2.843,6.438,3.322,9.297,1.055c0.316-0.247,0.459-0.601,0.485-0.965
		c0.253-0.432,0.438-0.917,0.438-1.466c0-1.624-1.318-2.942-2.953-2.942s-2.942,1.318-2.942,2.942c0,0.369,0.084,0.738,0.216,1.065
		c-0.933-0.147-1.803-0.602-2.426-1.393c-1.793-2.257-1.429-5.547,0.834-7.34c2.958-2.363,7.304-1.878,9.671,1.097
		c3.043,3.85,2.41,9.481-1.439,12.54c-4.946,3.939-10.727,3.238-16.3-1.973c-0.237-0.221-0.549-0.306-0.844-0.326
		c-2.669-2.59-5.416-5.954-8.606-9.983c-1.466-1.824-2.837-3.771-4.267-5.764c0.507,0.105,1.013,0.211,1.514,0.211
		c1.466,0,2.964-0.4,4.393-1.229c3.676-2.075,4.983-6.75,2.916-10.438c-1.729-3.075-5.658-4.164-8.711-2.432
		c-1.239,0.707-2.142,1.859-2.548,3.241c-0.396,1.4-0.211,2.84,0.501,4.111c0.597,1.057,1.582,1.84,2.764,2.154
		c1.191,0.335,2.415,0.177,3.485-0.422c0.459-0.264,0.606-0.752,0.575-1.237c0.068-0.134,0.127-0.274,0.147-0.432
		c0.147-0.989-0.532-1.907-1.529-2.052c-0.96-0.14-1.866,0.522-2.035,1.479c-0.443-0.146-0.812-0.422-1.044-0.831
		c-0.354-0.622-0.443-1.35-0.264-2.041c0.2-0.694,0.643-1.266,1.275-1.622c1.751-1.005,4.024-0.372,5.031,1.411
		c1.34,2.386,0.501,5.421-1.888,6.76c-4.008,2.26-7.151-0.39-8.775-2.389c-6.813-9.163-14.586-17.413-28.145-17.413
		c-0.031,0-0.068,0-0.115,0c-6.703,0.021-12.794,2.706-17.139,7.56c-2.751,3.066-4.564,6.916-5.527,11.074
		c-0.978-4.158-2.781-7.992-5.529-11.074c-4.343-4.854-10.434-7.538-17.146-7.56c-0.037,0-0.069,0-0.108,0
		c-13.559,0-21.329,8.234-28.145,17.413c-1.624,1.999-4.768,4.648-8.775,2.389c-2.37-1.339-3.227-4.374-1.896-6.755
		c1.01-1.777,3.256-2.405,5.049-1.416c0.623,0.34,1.065,0.928,1.266,1.622c0.182,0.691,0.108,1.418-0.261,2.041
		c-0.232,0.409-0.604,0.686-1.047,0.831c-0.168-0.963-1.075-1.638-2.035-1.479c-1.01,0.14-1.685,1.062-1.529,2.052
		c0.021,0.158,0.098,0.298,0.147,0.432c-0.029,0.496,0.119,0.983,0.578,1.237c1.052,0.599,2.294,0.772,3.483,0.422
		c1.182-0.33,2.154-1.097,2.764-2.154c0.714-1.25,0.886-2.711,0.503-4.111c-0.39-1.381-1.292-2.534-2.55-3.241
		c-3.061-1.727-6.982-0.63-8.709,2.437c-2.07,3.684-0.762,8.358,2.916,10.434c1.445,0.807,2.927,1.229,4.39,1.229
		c0.517,0,1.015-0.116,1.516-0.211c-1.437,1.993-2.813,3.939-4.266,5.764c-3.19,4.029-5.946,7.378-8.611,9.983
		c-0.309,0.021-0.602,0.105-0.839,0.326c-5.561,5.211-11.361,5.906-16.292,1.973c-3.86-3.059-4.493-8.69-1.448-12.54
		c2.365-2.975,6.703-3.47,9.671-1.097c2.257,1.793,2.626,5.083,0.833,7.34c-0.623,0.786-1.498,1.234-2.416,1.382
		c0.119-0.337,0.206-0.686,0.206-1.055c0-1.624-1.313-2.942-2.943-2.942c-1.637,0-2.953,1.318-2.953,2.942
		c0,0.549,0.182,1.013,0.438,1.466c0.026,0.359,0.166,0.718,0.485,0.965c2.861,2.268,7.035,1.788,9.294-1.055
		c2.731-3.417,2.154-8.432-1.25-11.132c-4.14-3.28-10.183-2.595-13.46,1.529c-3.992,5.01-3.154,12.351,1.861,16.332
		c0.029,0.011,0.061,0.037,0.082,0.058c-2.268-1.044-4.261-2.615-5.767-4.725c-2.381-3.344-3.344-7.583-2.613-11.623
		c1.16-6.417,7.277-10.694,13.732-9.545c0.15,0.029,0.284-0.079,0.43-0.103c0.132,0.045,0.266,0.116,0.406,0.116
		c0.011,0,0.248,0,0.258,0c1.648,0,9.991-0.298,13.637-6.191c1.187-1.922,1.052-4.382,0.949-6.549
		c-0.087-1.674-0.166-3.401,0.443-4.077c0.48-0.511,1.237-0.382,2.078-0.195c0.432,0.097,0.891,0.19,1.35,0.19
		c1.152,0,1.719-0.648,1.962-1.031c1.577-2.57-0.464-6.507-4.757-9.16c-4.084-2.525-8.785-2.628-10.32-0.145
		c-0.849,1.371,0.129,2.586,0.728,3.333c0.714,0.891,0.989,1.318,0.747,1.943c-0.325,0.841-1.912,1.54-3.452,2.205
		c-1.98,0.862-4.237,1.846-5.437,3.768C12.868,86,14.311,91.54,15.444,94.498C8.19,94.079,1.604,99.047,0.28,106.351
		c-0.854,4.757,0.264,9.745,3.062,13.669c2.75,3.839,6.771,6.328,11.361,7.034c11.546,1.793,18.262-6.761,26.083-16.632
		c0.042-0.053,0.087-0.111,0.113-0.164c0,0,0.011,0,0.016-0.016c1.69-1.877,5.142-4.609,9.176-1.946
		c2.272,1.503,2.893,4.604,1.392,6.861c-1.124,1.688-3.433,2.141-5.107,1.018c-0.601-0.385-1.015-1.007-1.158-1.703
		c-0.129-0.696,0-1.419,0.391-2.004c0.313-0.454,0.788-0.696,1.278-0.78c0.148,0.928,0.958,1.613,1.901,1.523
		c1.015-0.09,1.727-0.965,1.658-1.936c-0.021-0.221-0.103-0.411-0.179-0.601c-0.042-0.369-0.201-0.749-0.562-0.971
		c-2.109-1.402-4.941-0.833-6.344,1.25c-0.789,1.208-1.076,2.621-0.789,4.039c0.285,1.419,1.097,2.621,2.305,3.434
		c1.092,0.728,2.323,1.06,3.538,1.06c2.067,0,4.093-1.007,5.308-2.832c2.338-3.501,1.371-8.258-2.138-10.6
		c-2.091-1.397-4.348-1.84-6.55-1.397c0.313-0.433,0.641-0.838,0.938-1.26c1.118-1.571,2.257-3.141,3.412-4.686
		c0.029-0.032,0.055-0.053,0.082-0.098c0.005-0.011,0-0.021,0.005-0.021c6.378-8.517,13.629-16.081,25.779-16.081
		c0.034,0,0.066,0,0.092,0c5.946,0.016,11.325,2.376,15.143,6.658c4.292,4.801,6.307,11.578,5.529,18.583
		c-0.556,5.137-3.072,9.756-7.101,12.983c-3.715,2.995-8.342,4.377-13.057,4.166c-2.853-0.496-5.157-1.804-6.637-3.892
		c-1.772-2.5-2.354-5.991-1.582-9.598c0.496-2.342,1.867-4.335,3.865-5.632c1.994-1.303,4.385-1.746,6.724-1.245
		c1.798,0.385,3.336,1.461,4.346,2.995c1.004,1.529,1.329,3.365,0.952,5.158c-0.288,1.36-1.076,2.536-2.236,3.285
		c-1.171,0.775-2.587,1.018-3.942,0.743c-0.939-0.2-1.716-0.754-2.289-1.492c1.392-0.259,2.468-1.439,2.434-2.89
		c-0.021-1.625-1.36-2.933-2.985-2.9c-1.252,0.016-2.312,0.807-2.71,1.914c-0.034,0.079-0.108,0.11-0.113,0.169
		c-0.045,0.152,0.016,0.332-0.005,0.475c-0.029,0.142-0.082,0.264-0.082,0.411c0,0.116,0.053,0.2,0.063,0.306
		c-0.042,1.329,0.201,2.637,0.941,3.776c0.965,1.481,2.447,2.499,4.174,2.863c2.088,0.448,4.2,0.047,5.972-1.113
		c1.772-1.154,2.979-2.932,3.407-4.994c0.545-2.494,0.071-5.046-1.321-7.192c-1.4-2.136-3.533-3.623-6.044-4.161
		c-3.035-0.643-6.156-0.073-8.754,1.625c-2.597,1.697-4.385,4.303-5.039,7.33c-0.789,3.681-0.324,7.267,1.179,10.178
		c-0.59-0.538-1.179-1.087-1.685-1.72c-2.555-3.175-3.715-7.13-3.262-11.169c0.718-6.518,6.603-11.167,13.121-10.539
		c0.783,0.155,1.411-0.453,1.482-1.194c0.09-0.754-0.461-1.419-1.2-1.49c-7.992-0.875-15.206,4.941-16.086,12.938
		c-0.53,4.757,0.83,9.43,3.839,13.163c2.998,3.723,7.27,6.064,12.021,6.586c0.491,0.059,0.971,0.069,1.464,0.101
		c0.063,0,0.124,0.031,0.2,0.042c0.053,0,0.113,0.011,0.166,0.011c0.032,0,0.056-0.031,0.087-0.031c0.166,0,0.34,0.031,0.525,0.031
		c5.004,0,9.811-1.688,13.774-4.862c3.715-2.995,6.241-7.045,7.436-11.58c1.189,4.535,3.715,8.585,7.431,11.58
		c3.944,3.186,8.765,4.862,13.769,4.862c0.174,0,0.343-0.031,0.527-0.031c0.037,0,0.059,0.031,0.09,0.031
		c0.058,0,0.11-0.011,0.163-0.011c0.079-0.011,0.127-0.042,0.201-0.042c0.49-0.031,0.98-0.042,1.466-0.101
		c4.751-0.521,9.022-2.842,12.018-6.586c3.012-3.729,4.372-8.406,3.84-13.163c-0.887-7.997-8.09-13.764-16.084-12.938
		c-0.744,0.097-1.266,0.762-1.197,1.49c0.084,0.741,0.644,1.358,1.477,1.194c6.491-0.638,12.403,4.021,13.12,10.539
		c0.433,4.039-0.717,7.994-3.259,11.169c-0.512,0.633-1.087,1.192-1.688,1.72c1.477-2.911,1.951-6.497,1.181-10.178
		c-0.638-3.033-2.426-5.643-5.041-7.33c-2.6-1.688-5.722-2.268-8.754-1.625c-2.51,0.538-4.641,2.004-6.043,4.161
		c-1.393,2.146-1.867,4.698-1.329,7.177c0.433,2.078,1.646,3.855,3.417,5.01c1.771,1.16,3.887,1.572,5.97,1.113
		c1.729-0.364,3.228-1.382,4.177-2.863c0.738-1.14,0.98-2.447,0.938-3.776c0.011-0.105,0.063-0.185,0.063-0.306
		c0-0.147-0.053-0.27-0.079-0.411c-0.021-0.143,0.036-0.322-0.006-0.475c-0.016-0.085-0.095-0.105-0.116-0.169
		c-0.39-1.107-1.45-1.909-2.699-1.914c-1.635-0.032-2.975,1.275-2.996,2.9c-0.021,1.461,1.05,2.631,2.442,2.89
		c-0.56,0.754-1.351,1.292-2.289,1.492c-1.376,0.264-2.784,0.032-3.939-0.743c-1.171-0.765-1.951-1.925-2.246-3.296
		c-0.369-1.782-0.042-3.618,0.96-5.147c1.007-1.534,2.547-2.6,4.345-2.995c2.347-0.495,4.72-0.048,6.724,1.245
		c1.999,1.297,3.37,3.29,3.865,5.632c0.775,3.606,0.19,7.098-1.582,9.598c-1.471,2.088-3.78,3.406-6.649,3.892
		c-4.715,0.232-9.323-1.171-13.036-4.166c-4.023-3.243-6.542-7.847-7.104-12.983c-0.772-7.021,1.242-13.798,5.532-18.594
		c3.818-4.267,9.197-6.637,15.146-6.647c0.031,0,0.058,0,0.09,0c12.149,0,19.416,7.56,25.776,16.081
		c0.011,0.011,0,0.021,0.011,0.032c0.021,0.026,0.047,0.05,0.073,0.076c1.16,1.551,2.289,3.125,3.417,4.696
		c0.307,0.422,0.623,0.827,0.939,1.26c-2.194-0.442-4.451,0-6.55,1.393c-3.502,2.347-4.467,7.082-2.136,10.6
		c1.218,1.851,3.254,2.848,5.305,2.848c1.234,0,2.458-0.343,3.544-1.076c1.213-0.785,2.015-2.004,2.299-3.417
		c0.296-1.429,0-2.842-0.785-4.039c-1.403-2.104-4.225-2.658-6.35-1.261c-0.343,0.222-0.517,0.585-0.559,0.971
		c-0.09,0.189-0.147,0.38-0.18,0.601c-0.084,0.992,0.644,1.867,1.661,1.936c0.944,0.09,1.746-0.596,1.898-1.529
		c0.522,0.079,0.986,0.322,1.281,0.786c0.391,0.585,0.544,1.308,0.391,2.004c-0.132,0.706-0.559,1.318-1.139,1.703
		c-1.693,1.128-3.998,0.675-5.126-1.018c-1.503-2.257-0.881-5.337,1.392-6.861c4.029-2.679,7.473,0.09,9.176,1.962h0.006
		c0.047,0.053,0.095,0.111,0.121,0.164c7.826,9.861,14.555,18.436,26.082,16.632c4.599-0.706,8.628-3.195,11.364-7.034
		C195.559,116.096,196.677,111.107,195.812,106.351z M166.997,89.705c-0.754-1.221-0.653-3.138-0.559-4.994
		c0.11-2.23,0.237-4.538-1.155-6.038c-0.77-0.828-1.729-1.247-2.879-1.247c-0.648,0-1.25,0.129-1.745,0.242
		c-0.19,0.042-0.38,0.093-0.554,0.113c-0.222-1.07,1.055-3.375,3.965-5.184c2.469-1.519,5.464-1.999,6.418-1.236
		c-0.11,0.134-0.231,0.319-0.337,0.442c-0.744,0.918-1.983,2.468-1.16,4.596c0.717,1.912,2.837,2.839,4.888,3.726
		c1.698,0.749,3.476,1.505,4.209,2.721c2.077,3.354,1.117,7.636,0.2,10.223l-1.867-3.02c1.292-1.484,1.593-3.667,0.507-5.421
		c-1.292-2.096-4.251-2.797-6.339-1.484c-1.055,0.641-1.782,1.661-2.072,2.855c-0.285,1.205-0.079,2.423,0.559,3.483
		c0.844,1.371,2.32,2.181,3.929,2.181c0.385,0,0.77-0.063,1.145-0.15l1.83,2.953C173.305,94.1,169.038,93.024,166.997,89.705z
		 M173.03,88.938c-0.664,0-1.276-0.335-1.624-0.907c-0.27-0.433-0.349-0.938-0.237-1.447c0.116-0.496,0.422-0.918,0.854-1.182
		c0.3-0.189,0.633-0.298,0.996-0.298c0.67,0,1.281,0.335,1.635,0.907c0.564,0.886,0.274,2.08-0.622,2.624
		C173.727,88.851,173.384,88.938,173.03,88.938z M18.002,82.836c0.751-1.215,2.513-1.982,4.213-2.721
		c2.051-0.896,4.168-1.822,4.886-3.721c0.823-2.141-0.414-3.684-1.16-4.611c-0.113-0.113-0.232-0.298-0.335-0.433
		c0.949-0.768,3.942-0.287,6.416,1.236c2.921,1.819,4.195,4.124,3.973,5.189c-0.156-0.026-0.345-0.082-0.562-0.113
		c-0.496-0.113-1.089-0.232-1.738-0.232c-1.149,0-2.133,0.409-2.879,1.237c-1.393,1.495-1.263,3.813-1.155,6.043
		c0.103,1.856,0.195,3.773-0.562,4.988c-2.057,3.325-6.307,4.385-8.996,4.741l1.824-2.953c0.369,0.103,0.762,0.15,1.147,0.15
		c1.608,0,3.061-0.81,3.923-2.176c0.644-1.049,0.849-2.286,0.562-3.488c-0.284-1.205-1.015-2.215-2.057-2.858
		c-2.106-1.289-5.06-0.588-6.349,1.498c-1.087,1.748-0.789,3.932,0.506,5.41l-1.867,3.03C16.878,90.472,15.924,86.2,18.002,82.836z
		 M22.086,88.668c-0.896-0.562-1.184-1.74-0.622-2.621c0.34-0.562,0.968-0.913,1.637-0.913c0.345,0,0.696,0.108,1.015,0.298
		c0.414,0.264,0.728,0.686,0.836,1.181c0.113,0.509,0.034,1.018-0.237,1.458C24.174,88.911,22.961,89.214,22.086,88.668z"/>
</g>
<g>
</g>
<g>
</g>
<g>
</g>
<g>
</g>
<g>
</g>
<g>
</g>
<g>
</g>
<g>
</g>
<g>
</g>
<g>
</g>
<g>
</g>
<g>
</g>
<g>
</g>
<g>
</g>
<g>
</g>
</svg>
