<?xml version="1.0"?><svg width="1280" height="1024" xmlns="http://www.w3.org/2000/svg">
 <title>floral monogram</title>
 <metadata id="metadata7">image/svg+xml</metadata>
 <g>
  <title>Layer 1</title>
  <g id="svg_2">
   <path fill="#664e3b" d="m221.473053,458.868347c3.723465,0.517029 11.583939,3.201141 10.053986,8.253174c-1.7845,5.892426 -8.643768,0.814575 -12.265762,-4.711578c-29.041153,-5.093292 -33.906677,29.251495 -5.834991,45.322235c-31.565048,-14.069031 -29.955872,-56.763123 8.046768,-48.863831z" id="path2913"/>
   <path fill="#664e3b" id="path2955" d="m254.479233,489.466675c3.105545,-0.523193 7.205399,-2.481781 10.149033,2.156281c2.080536,3.278137 -6.188965,4.206024 -10.50174,0.863953c-24.494675,3.267548 -20.048462,27.66452 6.746552,25.336029c-29.320206,7.619446 -38.764465,-25.026764 -6.393845,-28.356262z"/>
   <g id="svg_1">
    <path fill="#664e3b" d="m700.514954,609.198059c-0.890442,0.020508 -1.781006,0.0672 -2.668213,0.142334c-12.218689,2.058594 -23.03479,7.225159 -32.703186,15.827942c-32.174133,29.536377 -27.168152,73.333252 -2.297363,104.771301c2.476807,2.128723 4.810913,3.873962 5.179443,3.873962c1.579224,0 0.469604,-4.163757 -1.612305,-6.071899c-11.612061,-11.962158 -18.604065,-26.958252 -20.018677,-43.19873c3.108521,-17.204163 12.064758,-34.915955 19.290955,-35.466675c3.411926,-0.26001 4.853638,-0.358154 6.035583,1.897461c0.764648,1.45929 0.662415,2.226685 -0.556519,3.874023c-1.981873,2.678406 -0.998779,5.184998 1.526733,3.889709c2.478638,-1.271057 2.80835,-6.103943 0.627808,-9.139343c-1.743591,-2.427429 -2.036194,-2.544434 -5.607483,-2.087219c-2.070557,0.265076 -3.727051,0.333496 -3.681274,0.142273c0.045776,-0.191162 2.057312,-1.132874 4.466064,-2.087158c7.859192,-3.113708 14.759766,-0.730896 15.495605,5.344482c0.319153,2.635376 -0.045715,3.855225 -2.197388,7.494934c-3.727356,6.305054 -2.946472,9.416687 1.612366,6.483032c1.510315,-0.971924 2.432983,-2.619873 3.15332,-5.62915c1.34436,-5.616516 0.328552,-10.177673 -2.853699,-12.886902c-3.467041,-2.951599 -3.079468,-3.485901 1.084412,-1.47052c8.328064,4.030823 11.20105,9.343201 9.688293,17.946838c-1.44519,8.219055 -1.378784,9.90155 0.385193,10.420105c5.308533,1.560486 7.508423,-9.215576 3.681274,-18.025818c-2.781799,-6.403809 -6.728638,-9.860657 -13.597839,-11.906494c-24.669067,-4.118713 -31.228699,11.90863 -38.795959,33.205444c-0.220398,-10.695068 2.529724,-20.978149 6.806091,-30.406921c11.929199,-23.017212 36.833679,-36.454895 54.391357,-33.426697c12.113403,2.089233 21.059021,11.346191 24.00708,22.079834c2.583313,9.405334 1.387939,15.983643 -9.35907,20.395874c-7.098389,2.914307 -12.858154,13.979065 -5.222351,17.662964c8.564453,1.884583 14.180908,-3.768799 18.37616,-11.605591c13.503113,-28.245544 -7.03418,-52.679749 -34.636414,-52.043396l0,0z" id="svg_4" transform="rotate(174.92 691 671.5)"/>
    <g id="svg_6" transform="rotate(179.717 953.98 530.487)">
     <path fill="#664e3b" d="m924.650757,342.866699c-2.006775,-0.024536 -3.945435,0.476593 -5.562927,1.708954c-5.967163,4.547394 -3.300415,17.368347 3.060364,16.313354c1.47168,-0.244629 3.387695,-1.911743 4.024048,-4.299103c1.056152,-3.962616 -1.69342,-5.54422 -3.804138,-3.135895c-2.07135,2.363739 -3.822327,1.004944 -3.584961,-2.765747c0.273254,-4.33551 3.242859,-6.739258 7.372498,-5.937073c2.778442,0.540222 4.900391,1.422424 8.690552,6.888397c16.783997,24.207642 7.185669,37.758942 26.51239,71.70166c-10.439819,-9.173035 -19.090149,-13.373016 -28.710327,-10.14798c-8.495911,2.849396 -13.068115,6.976624 -13.611084,16.137817c-0.58313,9.844238 6.099792,17.24469 14.067627,15.590332c5.555115,-1.153229 11.507324,-8.808319 7.000549,-12.771851c-6.188782,-5.441406 -12.788757,-0.048187 -10.77063,5.566956c1.71875,4.782959 -4.719727,3.057648 -6.915894,-2.924896c-5.432922,-14.796356 13.486206,-26.746033 29.639954,-14.779999c22.298096,19.186432 33.506104,33.281586 49.558594,44.500031c13.171204,9.20575 37.894958,21.632019 51.53656,28.821472c13.880737,7.265808 29.314453,11.156555 47.783081,12.050598c2.647461,0.128235 2.252075,0.442932 -2.536621,1.937195c-16.827759,5.254028 -30.61853,11.713196 -44.536865,20.911682c-26.668457,17.532043 -79.814758,52.302429 -115.381714,41.294067c-26.506348,-8.203491 -39.593628,-21.401855 -64.657043,-51.512085c-5.426819,-6.519165 -3.856445,-10.554504 -2.468567,-18.567993c1.589539,-9.180237 3.684448,-14.156067 9.451721,-17.476563c5.551636,-3.195862 11.124146,-5.848877 10.888489,-8.420837c-0.405884,-4.431946 -8.09259,-2.480225 -14.219482,3.646973c-4.92749,4.927612 -8.610229,15.319336 -9.350403,26.372253c-0.360535,5.380432 -0.956726,8.169861 -1.555542,7.346741c-0.531616,-0.730286 -2.987915,-2.032654 -5.427612,-2.906677c-20.437134,-12.102478 -38.799316,8.560059 -53.717896,11.715027c-12.709045,2.688416 -24.27594,0.974976 -33.02179,-12.349854c-6.874451,-10.952881 -16.445557,-33.0896 0.743958,-39.391418l3.195618,-0.193726l-3.246338,1.338806c-5.884644,2.422852 -4.891479,10.30249 1.30188,10.341675c4.421997,0.027283 6.843872,-2.701172 6.42511,-7.275879c-0.455566,-4.978516 -3.616943,-7.968872 -7.929993,-7.540497c-0.826294,0.082764 -1.59375,0.279205 -2.333313,0.563873c-5.177185,1.994446 -10.045776,8.299927 -9.028931,18.849915c3.328064,34.535706 31.490479,49.741333 58.942444,32.697632c10.762756,-6.682861 21.001831,-9.021118 13.15448,-3.08313c-9.658508,8.824707 -7.0495,20.25415 2.553284,27.535461c4.903015,2.692078 8.880798,3.058594 12.44397,1.075012c8.71582,-4.853943 7.517334,-17.587585 -1.758057,-18.46344c-4.587097,-0.432861 -8.07251,3.016785 -6.627869,6.553772c0.987244,2.416504 4.349609,3.548828 6.187927,2.096313c0.824097,-0.650269 0.398926,-1.064941 -1.386108,-1.321472c-3.050781,-0.437439 -3.650452,-2.656555 -1.217651,-4.615601c3.933228,-3.165894 9.077209,3.855347 6.780579,9.266724c-3.997803,9.417725 -17.303406,4.500122 -20.171753,-7.029419c-3.705444,-10.023376 14.169739,-22.072144 29.166992,-16.541626c3.214844,1.404297 7.330505,4.937561 8.318604,6.253601c24.069275,32.0802 45.275269,49.302979 70.152771,55.493835c7.478149,1.860779 14.442932,2.780273 20.966125,2.959473c-62.364868,13.673157 -122.285583,-18.598022 -155.268921,-23.871155c-12.103271,-1.934509 -15.054749,-0.792114 -19.376892,0.300049c-22.002747,5.55603 -20.451416,-17.276489 -31.060547,-18.005005c-2.108521,-0.144531 -2.620483,-0.247314 -4.024231,-0.210938c-1.804626,0.046387 -3.368835,0.907654 -5.123169,2.642029c-2.892822,2.861267 -3.328613,7.354065 -0.980713,10.024353c2.267578,2.579224 3.647583,0.973083 3.415527,-3.963562c0.221497,-13.340271 12.599304,-4.815674 16.62085,3.294189c5.73175,11.558533 16.149658,8.141602 11.44696,11.803162c-8.813416,6.862122 -22.114746,15.700378 -29.319031,26.901611c-4.216797,6.555542 -7.877136,18.52887 -7.37207,24.134888c0.414734,4.60199 1.536865,9.899719 7.27063,11.327576c7.236084,1.802612 15.418457,-7.384094 10.87207,-12.137939c-1.051758,-1.099548 -2.598022,-2.605652 -4.827454,-1.744385c-3.701355,1.428833 -3.667542,5.785217 -0.557739,6.157227c3.052002,0.36554 2.48877,2.38739 -0.583496,4.395508c-3.532959,2.309143 -7.132935,1.209595 -8.927551,-2.748474c-1.207458,-2.662964 -1.176025,-4.764709 0.270508,-11.344849c0.976624,-4.44281 3.081238,-10.475403 4.64978,-13.406677c5.338867,-9.976074 18.231689,-23.163574 27.49292,-28.081177c3.917236,-2.080872 16.272827,-6.764709 17.229553,-6.536438c0.35553,0.084595 -1.969116,2.066406 -5.157043,4.404663c-7.262573,5.325928 -13.847412,16.269714 -15.843079,26.319458l-1.301941,6.553711l2.012024,-5.61969c3.418823,-9.611389 7.71344,-16.530701 13.053284,-20.999878c9.697876,-8.116211 16.863892,-9.899719 36.640564,-5.548767c25.422119,5.592407 100.21698,41.251343 168.8797,11.151123c28.081848,-10.034241 46.891907,-32.707642 67.49823,-39.515137c-28.212769,23.01355 -40.636597,65.156128 -68.647888,90.199646c-7.353149,6.574646 -16.286377,9.2276 -21,9.494995c-4.714539,0.26825 -8.645996,-1.981812 -9.976318,-6.148132c-1.24646,-3.906189 0.51593,-9.729614 3.821533,-12.666321c2.592529,-2.302795 4.194275,-6.015259 3.179138,-7.346802c-2.237244,-2.930359 -8.309998,1.439697 -10.398804,7.487793c-2.073181,5.999817 -1.254395,10.940125 2.468506,14.973694c1.840027,1.993591 2.857849,3.742493 2.248596,3.876221c-1.528442,0.336487 -8.604126,-1.893555 -13.526367,-7.434082c-4.922302,-5.541504 -7.802795,-17.868652 -2.603882,-21.511108c5.15094,-3.608765 5.198975,-7.691467 2.079285,-8.861084c-7.066956,-2.650208 -13.74115,11.323059 -5.258301,26.813354c8.482727,15.490295 25.577515,17.241028 44.435486,8.490906c18.852783,-8.74646 45.489197,-62.028381 72.163879,-88.595337c10.405029,-12.682678 19.961426,-13.314758 13.137939,-2.889404c-36.330811,66.481262 -77.107971,118.489075 -140.118652,142.7677c-16.863464,6.49823 -39.952393,1.290527 -49.997681,-7.857056c-8.178162,-6.91748 -5.495789,-19.462891 1.301453,-28.327576c-22.556396,24.749695 2.170044,43.31311 29.116272,42.033447c6.763184,-1.089539 3.936768,-0.024536 -5.613525,3.048645c-27.655945,5.447754 -75.726257,-1.706238 -77.659729,-38.528381c-0.211243,-7.509644 3.999634,-14.297058 9.485779,-15.274719c5.510559,-0.981323 8.751648,7.687805 3.482849,9.319458c-3.042969,0.943115 -4.200378,-0.266541 -1.690796,-1.778931c1.536255,-0.926819 1.60437,-1.416077 0.304626,-2.342896c-2.358521,-1.681641 -4.922241,1.313293 -3.195618,3.734375c1.915955,2.688416 7.151611,1.553345 8.13269,-1.761719c0.938354,-3.172241 -0.796082,-6.9375 -3.204346,-8.024353c-13.978577,-6.310852 -21.880859,14.1297 -12.824585,31.912781c9.05542,17.783997 39.787415,29.086121 64.386414,26.478638c116.89801,-12.342529 166.862427,-129.055298 193.363525,-165.300049c22.658569,-14.566162 48.860229,-20.616089 71.521484,-16.525208c10.532471,1.901672 10.891113,1.899902 10.297607,-0.369263c-0.584961,-2.233704 -1.335571,-2.516541 -14.507568,-5.038513c-14.751953,-2.82489 -24.324951,-3.526978 -41.087158,-3.047668c-6.29541,0.179138 -16.405151,-0.622131 -25.767822,-2.061829c-14.549438,-2.236389 -15.902344,-2.617493 -24.297852,-6.870178c-14.62793,-7.412231 -22.657837,-17.14917 -21.050781,-25.544617c1.037842,-5.420502 4.311279,-7.411377 9.756348,-5.884338c5.006104,1.404236 6.898438,0.62207 7.185669,-2.994904c0.236572,-2.97583 -4.182861,-5.997131 -8.622559,-5.901642c-7.090454,0.152771 -13.311646,8.53186 -12.03894,16.225159c0.915771,5.536011 2.373413,8.261719 7.101074,13.282959c4.785278,5.08313 3.797974,4.962158 -2.248535,-0.281982c-17.814941,-15.450195 -23.112549,-34.305573 -12.410889,-44.059784c4.919678,-4.483734 9.689209,-5.010315 20.070557,-2.254608c5.717407,1.517029 8.66687,1.805328 10.651978,1.039551c3.549927,-1.37149 4.16626,-4.386414 1.572876,-7.734222c-3.30127,-4.260925 -7.710205,-5.667877 -15.809937,-5.038544c-13.408447,1.041382 -23.073853,9.736023 -24.093628,21.651123c-0.564697,6.590088 -1.791016,4.469177 -2.249268,-3.875305c-0.565674,-10.306244 2.123779,-21.712036 6.425293,-27.271698c5.310791,-6.862946 12.948486,-10.559082 23.333374,-11.327606c9.050049,-0.669373 15.110596,-3.381439 15.927612,-7.099396c0.6521,-2.964905 -3.070801,-8.07074 -6.458496,-8.879272c-1.118286,-0.266479 -2.36731,-0.420166 -3.669678,-0.440155c-0.352661,-0.005463 -0.719238,-0.011841 -1.081543,0c-5.446045,0.1828 -11.953369,2.320984 -17.297363,5.813385c-15.727539,10.278961 -23.326172,27.16983 -20.999756,46.773712c1.595459,13.450317 6.473145,25.144409 15.875977,36.854004c-13.841309,-4.930298 -40.365173,-23.105377 -56.659485,-40.888489c-17.37146,-18.986298 -19.581665,-33.648041 -28.101074,-64.178406c-3.229797,-11.572235 -10.439026,-24.867065 -15.16748,-27.588226c-2.240723,-1.290558 -4.92749,-2.189117 -7.506897,-2.220062l0,0z" id="svg_7"/>
     <path fill="#664e3b" d="m1048.083252,631.546082c1.951172,5.328247 -0.706787,21.430786 -5.511475,33.389343c-0.396851,0.987915 -0.59314,0.330017 -0.457397,-1.533691c0.203003,-2.787903 -0.497192,-4.190674 -4.803589,-9.622498c-2.772705,-3.497375 -6.872803,-8.785522 -9.11084,-11.752014l-4.06958,-5.393127l1.366211,-7.662109c0.751221,-4.214111 1.682861,-7.909912 2.070313,-8.212769c0.387207,-0.302795 2.744385,1.72937 5.238037,4.51593c4.071655,4.549683 5.664673,7.15094 8.439331,13.78009c0.467773,1.117432 0.679688,-0.26178 0.470825,-3.06488c-0.320801,-4.308777 -1.136475,-6.172424 -5.276367,-12.054932l-4.896729,-6.958313l5.018433,2.818054c6.270874,3.521362 9.843384,7.164368 11.522827,11.750916l0,0l0,0z" id="svg_8"/>
     <path fill="#664e3b" d="m894.155518,702.530884c-0.791626,2.115051 -1.170288,6.490662 -0.84137,9.72345l0.597839,5.877869l1.222534,-2.568726c0.672363,-1.412842 2.543396,-3.319702 4.157837,-4.237427c4.242004,-2.411438 6.371277,-5.881897 5.97467,-9.737915c-0.440674,-4.284973 -1.402039,-4.542175 -4.340454,-1.161621c-1.295166,1.490112 -2.812805,2.950073 -3.37262,3.244324c-1.621704,0.852478 1.939026,-4.652649 3.681091,-5.691162c3.006592,-1.792542 0.56134,-2.819824 -2.529541,-1.062683c-1.980225,1.125671 -3.633667,3.16571 -4.549988,5.613892z" id="svg_9"/>
     <path fill="#664e3b" d="m991.299744,687.719543c-0.432861,9.86792 -0.858887,11.509705 -1.977417,7.619507c-0.598633,-2.081726 -2.640503,-4.086548 -7.21521,-7.084351c-3.509155,-2.2995 -7.047363,-4.939209 -7.862549,-5.866028c-1.604614,-1.824036 -2.635376,-12.344116 -1.334839,-13.622559c0.887085,-0.871887 10.156128,6.779602 11.371948,9.38739c0.701416,1.504333 0.797363,1.471436 0.960938,-0.329346c0.21875,-2.408081 -2.967041,-6.474609 -7.776611,-9.926575c-3.242432,-2.327209 -3.294556,-2.430298 -1.164185,-2.303955c1.226563,0.072754 4.263184,1.147278 6.747803,2.387878c6.435669,3.213318 8.733765,8.711426 8.250122,19.738037z" id="svg_10"/>
     <path fill="#664e3b" d="m930.292908,671.658691c-3.390137,-2.15387 -6.006165,-7.572205 -7.122253,-14.751282c-0.361938,-2.328308 -0.889587,-5.39386 -1.172485,-6.8125c-0.485657,-2.43512 -0.367432,-2.397278 2.115295,0.677063c1.640869,2.031738 4.320251,3.699829 7.124817,4.435547c2.472229,0.648682 5.728027,2.189941 7.235168,3.425171c2.795227,2.290894 5.804626,10.133606 4.435791,11.559814c-0.415894,0.433289 -3.544922,-0.735962 -6.95343,-2.59845c-5.483826,-2.99646 -6.028931,-3.12207 -4.73468,-1.091187c0.804321,1.262207 3.466187,3.398987 5.915222,4.748352l4.45282,2.453369l-4.044434,-0.004517c-2.224426,-0.001648 -5.487793,-0.921021 -7.251831,-2.04187l0,0.000244l0,0.000244z" id="svg_11"/>
     <path fill="#664e3b" d="m927.815613,707.304871c-1.260193,-8.798218 -5.859375,-13.612854 -13.161072,-13.777649l-3.62207,-0.081848l4.388916,2.365112c2.41394,1.30072 4.830811,3.262878 5.370667,4.360229c0.792664,1.611023 -0.15509,1.344238 -4.923157,-1.386108c-6.621582,-3.791626 -7.58313,-3.142578 -5.533203,3.735168c1.266907,4.250671 3.975159,6.477234 10.125977,8.324951c2.386292,0.716858 5.229553,2.264954 6.318359,3.440247c2.295044,2.477295 2.343506,2.15094 1.035583,-6.980225l0,0.000122z" id="svg_12"/>
     <path fill="#664e3b" d="m1001.155945,519.446899c-3.312256,-1.502258 -25.657715,-5.961121 -26.309692,-5.249878c-0.133179,0.145264 1.061646,0.882324 2.655273,1.637939c3.765747,1.785522 6.832886,7.029236 9.756348,16.680481c1.224609,4.042725 3.18689,8.306152 4.360718,9.474365c2.656128,2.643555 10.157837,5.233093 14.456909,4.990417l3.238159,-0.182739l-3.273438,-7.296326c-1.800415,-4.013 -4.70166,-8.738098 -6.447388,-10.500427c-2.600098,-2.624817 -2.789795,-3.10791 -1.049316,-2.672241c3.67627,0.920166 8.349365,6.417664 11.347412,13.348999c1.590454,3.676758 3.045288,6.30542 3.233337,5.841553c0.673584,-1.663025 -1.052429,-13.474243 -2.463928,-16.860107c-1.780518,-4.271179 -4.568237,-6.973206 -9.504395,-9.212036z" id="svg_13"/>
     <path fill="#664e3b" d="m1090.812866,560.463562c-3.387939,-2.351074 -6.188843,-6.997742 -7.630005,-12.657837c-0.568848,-2.234558 0.078857,-1.833679 3.783325,2.341309c4.315674,4.863647 8.788086,8.078491 9.788574,7.036133c0.265991,-0.277039 -0.766113,-1.527771 -2.293335,-2.779419c-2.884521,-2.364075 -8.639282,-9.769226 -8.689575,-11.18158c-0.050781,-1.428467 10.325928,-0.862305 13.27002,0.72406c1.564819,0.84314 4.102173,3.876343 5.63855,6.740479c3.958618,7.379822 5.137939,8.743958 9.112915,10.541443c3.384277,1.530457 3.076538,1.593506 -7.971558,1.634094c-10.249878,0.037598 -11.871826,-0.221558 -15.008911,-2.398682z" id="svg_14"/>
     <path fill="#664e3b" d="m1113.892334,472.115845c-4.36499,-7.061676 -10.872192,-10.564148 -31.021118,-16.69693l-8.313477,-2.530396l3.832642,2.742493c4.876099,3.489105 6.841309,7.326569 8.681885,16.952789c2.364868,12.368896 4.520752,16.932983 9.817749,20.78418c2.519653,1.831848 7.003418,3.949341 9.964233,4.705566l5.382935,1.374939l-0.231567,-2.076355c-0.374756,-3.357361 -5.532471,-17.513611 -7.546875,-20.714233c-1.02002,-1.620789 -2.866333,-3.904175 -4.102783,-5.07428l-2.248169,-2.127441l3.274414,1.828979c6.423462,3.588013 11.046021,11.124512 14.717041,23.994019l1.223877,4.290283l0.288208,-3.975586c0.602295,-8.30835 -1.139526,-19.30542 -3.718628,-23.478149l0,0l-0.000366,0.000122z" id="svg_15"/>
     <path fill="#664e3b" d="m1120.386475,386.475677c-0.446167,-0.398682 -2.244141,-2.464935 -3.995239,-4.591675c-3.69812,-4.491608 -9.482544,-7.384491 -15.266724,-7.635254c-3.351074,-0.145264 -22.700806,5.082825 -22.821411,6.166107c-0.02771,0.247986 1.186279,0.320374 2.69751,0.16095c3.314087,-0.349579 7.731934,2.234528 14.313354,8.372345c6.954102,6.485474 9.902954,8.367004 13.921509,8.882843c4.16333,0.534424 12.964844,-2.009766 11.999146,-3.468506c-1.394531,-2.106567 -12.628662,-9.806396 -16.43042,-11.261353c-4.733276,-1.811523 -4.193237,-2.656921 1.126587,-1.763214c2.411743,0.405182 6.144775,2.337189 10.674683,5.52475c3.831299,2.695892 7.203613,4.989807 7.494263,5.097565c0.622803,0.231049 -2.533081,-4.430481 -3.713257,-5.484558l0,-0.000031l0,0.000031z" id="svg_16"/>
     <path fill="#664e3b" d="m837.030823,570.220764c-0.360596,0.243042 -2.149292,1.060181 -3.974854,1.815979c-3.855469,1.59613 -6.868164,5.542969 -7.951477,10.416687c-0.627563,2.823608 0.178833,21.256531 0.951172,21.740112c0.176758,0.110718 0.418579,-0.905151 0.537354,-2.257507c0.260376,-2.965576 2.834961,-5.848389 8.341309,-9.340088c5.818298,-3.689575 7.651123,-5.558777 8.653259,-8.825012c1.038147,-3.383728 0.550049,-11.826538 -0.665466,-11.51001c-1.75531,0.45697 -9.126404,7.391785 -10.780579,10.142395c-2.059448,3.424622 -2.592773,2.664612 -1.112244,-1.585022c0.671265,-1.926819 2.663025,-4.450989 5.695679,-7.218323c2.564941,-2.340454 4.764893,-4.428406 4.888733,-4.639771c0.265686,-0.453308 -3.629517,0.618225 -4.582886,1.26062l0,-0.000061z" id="svg_17"/>
     <path fill="#664e3b" d="m900.600464,595.625122c1.754517,4.475159 -0.635559,17.999756 -4.955872,28.043762c-0.356873,0.829712 -0.533386,0.277161 -0.411316,-1.288086c0.182556,-2.341675 -0.447083,-3.519775 -4.319397,-8.082092c-2.493103,-2.937378 -6.179932,-7.378906 -8.192322,-9.870422l-3.659363,-4.529785l1.228394,-6.435425c0.675598,-3.539429 1.513306,-6.643555 1.861633,-6.897888c0.348267,-0.254333 2.467834,1.452454 4.710205,3.792908c3.661011,3.821289 5.093506,6.006104 7.58844,11.573914c0.420532,0.938599 0.611084,-0.219788 0.423462,-2.574158c-0.288574,-3.618896 -1.022095,-5.184265 -4.744507,-10.125l-4.403198,-5.844299l4.512634,2.366943c5.638733,2.95752 8.850952,6.017334 10.361206,9.869629l0,0l0,0z" id="svg_18"/>
     <path fill="#664e3b" d="m842.73938,483.677551c-2.728333,-5.8797 -7.247986,-9.687805 -21.545898,-18.153931l-5.899414,-3.493164l2.618286,2.722565c3.331055,3.463654 4.516968,6.575226 5.239319,13.746124c0.928162,9.213928 2.20636,12.877441 5.821106,16.683105c1.719299,1.810181 4.8526,4.225281 6.962952,5.367065l3.836792,2.075867l-0.035156,-1.512756c-0.057251,-2.446167 -2.906738,-13.494934 -4.169617,-16.167297c-0.639465,-1.35321 -1.838745,-3.34375 -2.665039,-4.423401l-1.50238,-1.963013l2.269897,1.963135c4.453064,3.851318 7.338684,10.119019 9.187012,19.954468l0.61615,3.27887l0.466125,-2.746216c0.974243,-5.739136 0.41217,-13.857117 -1.200012,-17.33136l0,0l-0.000122,-0.000061z" id="svg_19"/>
     <path fill="#664e3b" d="m978.645447,419.167908c3.027466,-1.568237 12.758301,-0.968994 20.17688,1.242523c0.612915,0.182678 0.236084,0.348419 -0.87854,0.386353c-1.667236,0.056793 -2.451538,0.58606 -5.380859,3.630951c-1.885986,1.960419 -4.744019,4.867126 -6.35144,6.459045l-2.922363,2.894501l-4.637085,-0.348328c-2.550415,-0.19162 -4.805542,-0.529846 -5.011475,-0.751678c-0.205811,-0.221802 0.839355,-1.826569 2.322754,-3.566162c2.421997,-2.84021 3.856689,-4.005554 7.599976,-6.173279c0.630981,-0.365417 -0.201416,-0.406891 -1.849731,-0.092224c-2.533813,0.483765 -3.583618,1.115479 -6.791504,4.086029l-3.794434,3.513763l1.330688,-3.317291c1.66272,-4.145142 3.580933,-6.614288 6.187134,-7.964203l0,0z" id="svg_20"/>
     <path fill="#664e3b" d="m988.599426,464.1875c-0.290283,0.329773 -1.82373,1.590027 -3.407593,2.800598c-3.345337,2.55658 -5.306641,7.166809 -5.176758,12.167725c0.075317,2.897217 5.312256,20.524048 6.176514,20.789429c0.197876,0.060791 0.186279,-0.98584 -0.025757,-2.325745c-0.464844,-2.938232 1.329712,-6.403809 5.814331,-11.228149c4.738525,-5.097656 6.060425,-7.387695 6.240479,-10.811523c0.186646,-3.547119 -2.326904,-11.589569 -3.426636,-10.964203c-1.588379,0.902924 -7.045044,9.548737 -7.980835,12.644745c-1.165039,3.854736 -1.86499,3.259216 -1.459595,-1.242065c0.183716,-2.040771 1.500977,-5.006348 3.766846,-8.480347c1.916382,-2.938202 3.540527,-5.536163 3.609375,-5.773224c0.147583,-0.508392 -3.362915,1.550842 -4.130371,2.422821l0,-0.000061z" id="svg_21"/>
     <path fill="#664e3b" d="m967.697815,443.416382c-0.385742,0.116394 -2.154602,0.333862 -3.930786,0.483429c-3.751404,0.315918 -7.687073,3.062225 -10.387573,7.248352c-1.564453,2.425171 -7.762329,19.735138 -7.309753,20.415802c0.103577,0.155762 0.679565,-0.711975 1.279968,-1.928345c1.316711,-2.667236 4.497681,-4.560547 10.306213,-6.134003c6.137573,-1.662628 8.334106,-2.840973 10.369995,-5.56311c2.109131,-2.820129 4.850647,-10.784363 3.737488,-10.857635c-1.607544,-0.105927 -10.224304,4.093506 -12.602295,6.141693c-2.960815,2.550171 -3.114807,1.68576 -0.321167,-1.802795c1.266663,-1.581696 3.836914,-3.318512 7.350159,-4.966797c2.971252,-1.394012 5.549744,-2.664154 5.729797,-2.82254c0.38623,-0.33963 -3.202332,-0.521484 -4.222168,-0.213989l0,-0.000061l0.000122,0z" id="svg_22"/>
    </g>
    <path fill="#664e3b" d="m487.993866,535.921753c2.557587,3.038086 1.988159,6.732849 0.141754,8.75415c-1.426453,1.561523 -3.752869,3.244751 -7.754517,3.316284c-9.270782,0.16571 -20.005371,-10.782776 -21.060364,-24.119141c-1.80307,-22.79364 13.750244,-50.053345 39.269196,-63.942505c9.845001,-5.358337 8.743042,-2.651062 -1.84967,4.544281c-12.491302,8.485016 -22.053406,18.655273 -26.706512,28.40506c-4.630402,9.702087 -5.988373,15.933777 -6.023743,27.642822c-0.02356,7.790527 0.489746,10.580017 2.727417,14.822693c3.48053,6.599182 9.186279,10.5625 15.206238,10.5625c9.391022,-0.201294 6.323975,-12.084045 1.073364,-8.998291c-1.52951,0.898926 0.290558,0.487976 1.680878,1.778748c1.389648,1.290161 -0.63913,2.724243 -2.228699,2.476257c-2.793793,-0.435974 -3.010284,-3.248535 -1.146088,-5.396118c1.401672,-1.614685 5.243591,-1.552612 6.670746,0.153259z" id="path2903"/>
    <path fill="#664e3b" d="m565.4599,271.517822c-1.208801,0.025177 -2.417847,0.082336 -3.622253,0.174347c-16.587708,2.521851 -31.27124,8.851013 -44.39679,19.389771c-43.678497,36.182983 -36.882538,89.835571 -3.118774,128.348114c3.362427,2.607758 6.531128,4.745728 7.031433,4.745728c2.14386,0 0.637512,-5.100739 -2.188843,-7.438202c-15.76413,-14.654053 -25.256256,-33.02478 -27.176636,-52.919891c4.220001,-21.075623 16.378632,-42.773132 26.188721,-43.447754c4.631958,-0.318512 6.589111,-0.438751 8.193726,2.324432c1.038086,1.787659 0.899292,2.727753 -0.755493,4.745758c-2.690552,3.281219 -1.355957,6.351807 2.072632,4.765106c3.364868,-1.557159 3.8125,-7.477539 0.852295,-11.196075c-2.367065,-2.973633 -2.764282,-3.116913 -7.612549,-2.556885c-2.810913,0.324707 -5.059692,0.408539 -4.997559,0.174316c0.062134,-0.234192 2.792908,-1.387787 6.062988,-2.556885c10.669312,-3.814392 20.037354,-0.895325 21.036255,6.54718c0.433289,3.228455 -0.062012,4.722778 -2.983032,9.18158c-5.060181,7.723877 -4.000061,11.535706 2.188843,7.941864c2.050354,-1.190674 3.302979,-3.209381 4.280823,-6.895874c1.825073,-6.880402 0.446045,-12.467987 -3.874084,-15.786835c-4.706665,-3.615845 -4.180542,-4.270325 1.472168,-1.801453c11.305908,4.937866 15.206238,11.445679 13.152527,21.985382c-1.961975,10.068665 -1.871826,12.129822 0.522949,12.765045c7.206665,1.911652 10.193176,-11.289459 4.997559,-22.082214c-3.776489,-7.844879 -9.134583,-12.079681 -18.459961,-14.585876c-33.489899,-5.045532 -42.395081,14.588531 -52.668091,40.677765c-0.299255,-13.101868 3.434265,-25.698883 9.239655,-37.24939c16.194733,-28.196869 50.004181,-44.658478 73.839935,-40.948822c16.444763,2.559387 28.588989,13.899475 32.591248,27.048553c3.506958,11.521759 1.884216,19.580414 -12.705566,24.985565c-9.636536,3.570099 -17.455872,17.124756 -7.089722,21.637634c11.626831,2.308716 19.251526,-4.616882 24.946838,-14.217163c18.33136,-34.601685 -9.549377,-64.534332 -47.02124,-63.754822l0,0z" id="path2895"/>
    <path fill="#664e3b" id="path3773" d="m626.60907,370.201355c-78.498535,0 -142.171844,60.543365 -142.171844,135.184021c0,74.64032 63.673309,135.183655 142.171844,135.183655c78.49762,0 142.170166,-60.543335 142.170166,-135.183655c0,-74.640656 -63.672546,-135.184021 -142.170166,-135.184021zm2,14.496368c66.181458,-4 129.045898,59.463074 126.045898,120.687653c6,59.224243 -54.864441,119.687256 -127.045898,122.687256c-62.183044,2 -135.047546,-61.463013 -127.047546,-122.687256c2,-80.224579 67.864502,-120.687653 128.047546,-120.687653z"/>
    <g id="svg_5">
     <path fill="#664e3b" d="m222.511993,266.023987c-2.298996,-0.026978 -4.519989,0.524017 -6.372986,1.879028c-6.836014,5 -3.781006,19.096985 3.505997,17.936981c1.685989,-0.268982 3.880997,-2.10199 4.610001,-4.72699c1.209991,-4.356995 -1.940002,-6.096008 -4.358002,-3.447998c-2.373001,2.598999 -4.378998,1.10498 -4.10701,-3.041016c0.313004,-4.766998 3.715012,-7.410004 8.445999,-6.527985c3.183014,0.593994 5.614014,1.563995 9.956009,7.574005c19.227997,26.616974 8.231995,41.516998 30.373001,78.837982c-11.960007,-10.085999 -21.869995,-14.70401 -32.891006,-11.15799c-9.733002,3.132996 -14.970993,7.67099 -15.593002,17.743988c-0.667999,10.824005 6.988007,18.960999 16.116013,17.141998c6.363998,-1.268005 13.182999,-9.684998 8.019989,-14.042999c-7.089996,-5.983002 -14.651001,-0.052979 -12.338989,6.121002c1.968994,5.259003 -5.407013,3.362 -7.923004,-3.216003c-6.223999,-16.268982 15.449997,-29.40799 33.955994,-16.251007c25.544998,21.096008 38.384995,36.594025 56.775009,48.929016c15.088989,10.122009 43.412994,23.785004 59.040985,31.690002c15.902008,7.988983 33.583008,12.266998 54.740997,13.25c3.03302,0.140991 2.580017,0.487 -2.905975,2.130005c-19.278015,5.776978 -35.077026,12.878998 -51.022003,22.992981c-30.552002,19.277008 -91.437012,57.507996 -132.183014,45.403992c-30.365997,-9.019989 -45.358994,-23.531982 -74.071991,-56.638977c-6.21701,-7.167999 -4.417999,-11.605011 -2.828003,-20.416016c1.820999,-10.093994 4.220993,-15.565002 10.828003,-19.216003c6.360001,-3.513977 12.744003,-6.431 12.473999,-9.258972c-0.464996,-4.873016 -9.270996,-2.72702 -16.290009,4.009979c-5.644989,5.417999 -9.863998,16.843994 -10.71199,28.997009c-0.41301,5.915985 -1.096008,8.983002 -1.781998,8.078003c-0.609009,-0.803009 -3.423004,-2.235016 -6.218002,-3.196014c-23.413002,-13.306976 -44.449005,9.412018 -61.539902,12.881012c-14.5597,2.955994 -27.810902,1.071991 -37.830303,-13.57901c-7.875401,-12.042999 -18.840199,-36.382996 0.852303,-43.311981l3.660999,-0.213013l-3.719101,1.472015c-6.741501,2.664001 -5.603699,11.327972 1.491501,11.370972c5.065899,0.030029 7.840401,-2.969971 7.360699,-8c-0.5219,-5.473999 -4.1436,-8.761993 -9.084698,-8.290985c-0.946701,0.091003 -1.825802,0.307007 -2.673103,0.619995c-5.931,2.192993 -11.508598,9.126007 -10.343697,20.726013c3.812698,37.972992 36.075996,54.691986 67.525299,35.951996c12.330002,-7.347992 24.059998,-9.919006 15.07,-3.390015c-11.065002,9.703003 -8.076004,22.27002 2.925011,30.276001c5.616989,2.960022 10.173996,3.363007 14.255981,1.182007c9.985001,-5.337006 8.612015,-19.337982 -2.013992,-20.300995c-5.255005,-0.476013 -9.248001,3.316986 -7.593002,7.205994c1.130997,2.657013 4.983002,3.902008 7.089005,2.304993c0.944,-0.714996 0.457001,-1.17099 -1.587997,-1.453003c-3.49501,-0.480988 -4.182007,-2.92099 -1.395004,-5.074982c4.505997,-3.481018 10.399002,4.238983 7.768005,10.188995c-4.580002,10.355011 -19.823006,4.947998 -23.109009,-7.729004c-4.244987,-11.020996 16.233002,-24.268982 33.414001,-18.187988c3.682999,1.544006 8.397995,5.428986 9.529999,6.876007c27.574005,35.27298 51.867996,54.209961 80.367996,61.016968c8.567001,2.046021 16.546005,3.057007 24.018997,3.254028c-71.445984,15.033997 -140.091988,-20.449005 -177.878189,-26.247009c-13.865692,-2.127014 -17.246902,-0.871002 -22.198402,0.329987c-25.206699,6.109009 -23.429501,-18.996002 -35.583399,-19.796997c-2.415501,-0.158997 -3.0021,-0.272003 -4.610201,-0.231995c-2.0674,0.050995 -3.8594,0.998016 -5.8692,2.904999c-3.3141,3.145996 -3.8133,8.085999 -1.123501,11.022003c2.597801,2.835999 4.178701,1.070007 3.912802,-4.358002c0.253799,-14.667999 14.433998,-5.294983 19.0411,3.622009c6.566399,12.708984 18.501301,8.951996 13.1138,12.977997c-10.096802,7.544983 -25.3349,17.26297 -33.588301,29.57901c-4.8308,7.208008 -9.024139,20.372986 -8.44545,26.536987c0.47505,5.059998 1.76055,10.88501 8.32925,12.455017c8.289801,1.981995 17.663599,-8.119019 12.4552,-13.346008c-1.204901,-1.208984 -2.976301,-2.86499 -5.530401,-1.91803c-4.240299,1.571045 -4.201599,6.361023 -0.638899,6.77002c3.496399,0.401978 2.851099,2.625 -0.668501,4.833008c-4.0474,2.539001 -8.1716,1.330017 -10.2275,-3.022034c-1.3833,-2.927979 -1.3473,-5.238953 0.3099,-12.473999c1.1188,-4.884949 3.529901,-11.517944 5.3268,-14.740967c6.116301,-10.968994 20.886499,-25.468994 31.496298,-30.876007c4.487701,-2.287994 18.642403,-7.437988 19.738403,-7.187012c0.407288,0.093018 -2.255913,2.272003 -5.908012,4.843018c-8.320087,5.855988 -15.863689,17.889008 -18.14999,28.938995l-1.491497,7.205994l2.304996,-6.179016c3.916603,-10.567993 8.836601,-18.175964 14.954002,-23.089966c11.109989,-8.924011 19.3195,-10.88501 41.975903,-6.101013c29.123993,6.148987 114.809998,45.356995 193.470993,12.260986c32.17099,-11.03299 53.720001,-35.962982 77.326996,-43.447998c-32.320984,25.304016 -46.553986,71.640991 -78.643982,99.177002c-8.424011,7.229004 -18.65802,10.145996 -24.058014,10.440002c-5.401001,0.294983 -9.904999,-2.179016 -11.428986,-6.76001c-1.428009,-4.294983 0.591003,-10.697998 4.377991,-13.927002c2.970001,-2.531982 4.804993,-6.613953 3.641998,-8.078003c-2.562988,-3.221985 -9.519989,1.583008 -11.912994,8.233032c-2.375,6.596985 -1.437012,12.028992 2.828003,16.463989c2.108002,2.192017 3.273987,4.11499 2.575989,4.262024c-1.751007,0.369995 -9.856995,-2.082031 -15.496002,-8.174011c-5.638992,-6.093018 -8.938995,-19.647034 -2.983002,-23.652039c5.901001,-3.967957 5.956009,-8.45697 2.382004,-9.742981c-8.095993,-2.914001 -15.742004,12.450012 -6.024002,29.481995c9.718002,17.032043 29.302002,18.957031 50.906006,9.335999c21.597992,-9.617004 52.113007,-68.201965 82.671997,-97.412994c11.920013,-13.944977 22.868011,-14.639984 15.050995,-3.177002c-41.621002,73.097992 -88.335999,130.282013 -160.521988,156.97702c-19.319,7.14502 -45.770004,1.419006 -57.278,-8.639038c-9.369003,-7.605957 -6.296005,-21.399963 1.490997,-31.146973c-25.841003,27.213013 2.485992,47.624023 33.356003,46.21698c7.748001,-1.197998 4.509995,-0.026978 -6.431,3.352051c-31.682999,5.98999 -86.753006,-1.876038 -88.968002,-42.363037c-0.242004,-8.257019 4.582001,-15.719971 10.866997,-16.794983c6.312996,-1.078979 10.025993,8.453003 3.98999,10.247009c-3.486,1.036987 -4.811989,-0.29303 -1.936989,-1.955994c1.760002,-1.019043 1.837997,-1.557007 0.348999,-2.57605c-2.702011,-1.848999 -5.639,1.444031 -3.661011,4.106018c2.195,2.955994 8.193008,1.708008 9.317017,-1.937012c1.074997,-3.487976 -0.912003,-7.627991 -3.671005,-8.822998c-16.014,-6.938965 -25.067001,15.536011 -14.692001,35.088989c10.374001,19.554016 45.580994,31.981018 73.761993,29.114014c133.919998,-13.570984 191.160019,-141.899994 221.520004,-181.751984c25.958008,-16.015991 55.975006,-22.667999 81.936005,-18.170013c12.06601,2.091003 12.47699,2.08902 11.796997,-0.405975c-0.670013,-2.456024 -1.529999,-2.766998 -16.619995,-5.540009c-16.899994,-3.106018 -27.867004,-3.877991 -47.070007,-3.351013c-7.212006,0.197021 -18.794006,-0.68399 -29.519989,-2.266998c-16.667999,-2.458984 -18.218018,-2.877991 -27.835999,-7.553986c-16.757996,-8.149994 -25.957001,-18.856018 -24.115997,-28.087006c1.188995,-5.959991 4.938995,-8.149017 11.177002,-6.470001c5.734985,1.544006 7.902985,0.68399 8.231995,-3.292999c0.270996,-3.272003 -4.792023,-6.593994 -9.878021,-6.489014c-8.122986,0.167999 -15.25,9.381012 -13.791992,17.840027c1.049011,6.086975 2.718994,9.083984 8.13501,14.60498c5.481995,5.58902 4.350983,5.455994 -2.576019,-0.309998c-20.408997,-16.988007 -26.477997,-37.720001 -14.217987,-48.445007c5.636017,-4.929993 11.100006,-5.509003 22.993011,-2.479004c6.549988,1.667999 9.928986,1.985016 12.203003,1.143005c4.066986,-1.507996 4.77298,-4.822998 1.802002,-8.503998c-3.782013,-4.684998 -8.833008,-6.231995 -18.112,-5.540009c-15.361023,1.14502 -26.434021,10.705017 -27.60202,23.806c-0.647003,7.246002 -2.052002,4.914001 -2.576996,-4.260986c-0.64801,-11.332001 2.433014,-23.872986 7.360992,-29.985992c6.084015,-7.546021 14.834015,-11.610016 26.731018,-12.455017c10.367981,-0.735992 17.311005,-3.717987 18.246979,-7.806c0.747009,-3.259979 -3.517975,-8.873993 -7.398987,-9.763c-1.281006,-0.292999 -2.712006,-0.461975 -4.20401,-0.483978c-0.403992,-0.006012 -0.824005,-0.013 -1.238983,0c-6.239014,0.200989 -13.694,2.552002 -19.81601,6.391998c-18.018005,11.302002 -26.722992,29.873993 -24.057983,51.428986c1.827972,14.789001 7.415985,27.647003 18.187988,40.522003c-15.856995,-5.42099 -46.243011,-25.404999 -64.910004,-44.958008c-19.901001,-20.875977 -22.433014,-36.996979 -32.192993,-70.565979c-3.700012,-12.723999 -11.959,-27.34201 -17.376007,-30.334015c-2.567001,-1.419006 -5.645004,-2.406982 -8.600006,-2.44101l0,0z" id="path2983"/>
     <path fill="#664e3b" d="m363.918121,583.435059c2.23526,5.858521 -0.809814,23.563721 -6.314056,36.712463c-0.454712,1.086304 -0.679565,0.362915 -0.524078,-1.686279c0.232605,-3.06543 -0.569611,-4.607788 -5.503082,-10.580261c-3.176422,-3.845459 -7.873596,-9.659912 -10.437561,-12.921631l-4.66217,-5.929932l1.565002,-8.424683c0.860748,-4.633545 1.928101,-8.697144 2.371826,-9.030151c0.443787,-0.332947 3.144257,1.901489 6.001099,4.965393c4.664368,5.002502 6.48938,7.862671 9.66806,15.15155c0.535858,1.228699 0.778595,-0.287781 0.539459,-3.369873c-0.367584,-4.73761 -1.302094,-6.786743 -6.044708,-13.254761l-5.609894,-7.650818l5.749298,3.098511c7.184082,3.871826 11.276703,7.877441 13.200806,12.920471l-0.000031,0l0.000031,0z" id="path2925"/>
     <path fill="#664e3b" d="m187.576248,661.484802c-0.906921,2.325562 -1.340714,7.136658 -0.963974,10.691223l0.684967,6.462891l1.400528,-2.824402c0.770264,-1.553467 2.913757,-3.650085 4.76326,-4.65918c4.859726,-2.651428 7.299042,-6.467285 6.844696,-10.707092c-0.504868,-4.711426 -1.606186,-4.994263 -4.972473,-1.277222c-1.483765,1.638428 -3.222443,3.243652 -3.863739,3.5672c-1.857895,0.937317 2.221344,-5.115723 4.217056,-6.257568c3.444458,-1.970947 0.643158,-3.100464 -2.897827,-1.168457c-2.26857,1.237671 -4.16275,3.480774 -5.212494,6.172607z" id="path2919"/>
     <path fill="#664e3b" d="m298.865997,645.199341c-0.495819,10.850037 -0.983948,12.655212 -2.265442,8.377869c-0.68576,-2.28894 -3.024933,-4.493286 -8.265747,-7.789429c-4.020142,-2.528381 -8.073517,-5.430847 -9.007538,-6.44989c-1.838226,-2.005615 -3.019104,-13.572693 -1.529114,-14.978394c1.016174,-0.958679 11.634918,7.454346 13.027832,10.321716c0.803528,1.654053 0.913544,1.617859 1.100891,-0.362122c0.25061,-2.647766 -3.399139,-7.119019 -8.909027,-10.914551c-3.714569,-2.558838 -3.774261,-2.67218 -1.333679,-2.533264c1.405182,0.079956 4.883911,1.261475 7.730438,2.625549c7.372711,3.533081 10.005463,9.57843 9.451385,21.702515z" id="path2917"/>
     <path fill="#664e3b" d="m228.975677,627.539978c-3.883728,-2.368225 -6.880722,-8.325867 -8.159317,-16.219482c-0.414658,-2.559998 -1.019104,-5.930664 -1.343216,-7.490479c-0.556412,-2.67749 -0.420975,-2.635925 2.42337,0.744446c1.879761,2.233948 4.94928,4.068054 8.162201,4.877014c2.832199,0.713196 6.562134,2.407898 8.288742,3.766052c3.202194,2.51886 6.649872,11.142151 5.081696,12.710327c-0.476471,0.47644 -4.061127,-0.809204 -7.965958,-2.857056c-6.282364,-3.294678 -6.906784,-3.4328 -5.424164,-1.199829c0.921494,1.387878 3.971008,3.737305 6.776657,5.220947l5.101181,2.697571l-4.633347,-0.004944c-2.54834,-0.001831 -6.286865,-1.012695 -8.307846,-2.245117l0,0.000305l0,0.000244z" id="path2909"/>
     <path fill="#664e3b" d="m226.13768,666.733948c-1.443726,-9.673889 -6.712585,-14.967712 -15.07753,-15.148926l-4.149429,-0.089966l5.028015,2.600464c2.765427,1.430237 5.534149,3.587646 6.152679,4.79425c0.908127,1.771362 -0.17775,1.477966 -5.640045,-1.524109c-7.58577,-4.169006 -8.687302,-3.455322 -6.338913,4.106934c1.45137,4.673706 4.554001,7.121887 11.600433,9.153503c2.733795,0.788208 5.991089,2.490417 7.238434,3.782654c2.629257,2.723877 2.684723,2.365051 1.186356,-7.674927l0,0.000122z" id="path2907"/>
     <path fill="#664e3b" d="m310.157349,460.178894c-3.794617,-1.651794 -29.393799,-6.554474 -30.140747,-5.77243c-0.152588,0.159729 1.216278,0.970184 3.041962,1.800995c4.314148,1.963226 7.827759,7.728821 11.176971,18.340668c1.402954,4.445007 3.65097,9.132813 4.995667,10.417267c3.042999,2.906647 11.637024,5.753937 16.562103,5.487122l3.709686,-0.200958l-3.750122,-8.022491c-2.062531,-4.412384 -5.386292,-9.607788 -7.386108,-11.545441c-2.97876,-2.886108 -3.196075,-3.417267 -1.20224,-2.938232c4.211548,1.011749 9.565155,7.056335 12.999817,14.677551c1.82193,4.042694 3.48877,6.933044 3.704041,6.422943c0.77179,-1.828522 -1.205597,-14.815308 -2.822571,-18.538116c-2.039795,-4.69632 -5.233521,-7.667236 -10.888458,-10.128876z" id="path2901"/>
     <path fill="#664e3b" d="m412.869659,505.277863c-3.881287,-2.585144 -7.089996,-7.694214 -8.740997,-13.917694c-0.651764,-2.45697 0.090393,-2.016174 4.33429,2.574341c4.94397,5.347687 10.067657,8.882507 11.213837,7.736389c0.304596,-0.304596 -0.877716,-1.67984 -2.627289,-3.05603c-3.304504,-2.599335 -9.897247,-10.741516 -9.954865,-12.294464c-0.058258,-1.570618 11.829437,-0.94809 15.202362,0.796112c1.792633,0.927032 4.699432,4.262146 6.459534,7.411377c4.535095,8.114349 5.886017,9.614197 10.43988,11.590607c3.877075,1.682739 3.524597,1.752075 -9.132355,1.796722c-11.742432,0.041351 -13.600525,-0.243591 -17.194397,-2.63736z" id="path2899"/>
     <path fill="#664e3b" d="m439.309845,408.137024c-5.000641,-7.764496 -12.455383,-11.61557 -35.538269,-18.358734l-9.524078,-2.782257l4.390808,3.015472c5.58609,3.836365 7.837494,8.055756 9.946014,18.640045c2.70929,13.599945 5.179169,18.618286 11.247528,22.852783c2.886444,2.01416 8.023163,4.342438 11.414948,5.17392l6.16687,1.51178l-0.26532,-2.28302c-0.429413,-3.691498 -6.338013,-19.256653 -8.645782,-22.775879c-1.16861,-1.782074 -3.283691,-4.292755 -4.700195,-5.579315l-2.5755,-2.339172l3.751099,2.011017c7.358826,3.945129 12.654602,12.23175 16.860138,26.382141l1.401978,4.717255l0.330231,-4.371277c0.690094,-9.135254 -1.305359,-21.226837 -4.260162,-25.81485l0,0l-0.000305,0.000092z" id="path2897"/>
     <path fill="#664e3b" d="m446.749634,313.973267c-0.511261,-0.438354 -2.570953,-2.710266 -4.577057,-5.048676c-4.236664,-4.93866 -10.863342,-8.119446 -17.489777,-8.395172c-3.838989,-0.159729 -26.006226,5.588715 -26.144501,6.779816c-0.031647,0.272644 1.359039,0.352264 3.090393,0.176971c3.796661,-0.384399 8.857727,2.456909 16.397491,9.205627c7.966797,7.130951 11.344971,9.199738 15.94873,9.766937c4.76947,0.587585 14.8526,-2.209808 13.746277,-3.813721c-1.597504,-2.316254 -14.46756,-10.78241 -18.822845,-12.382202c-5.422577,-1.991791 -4.803802,-2.921356 1.290558,-1.93869c2.763062,0.445526 7.039581,2.569794 12.229218,6.074615c4.38916,2.964203 8.252563,5.48642 8.585388,5.604919c0.713593,0.254059 -2.901886,-4.871429 -4.253906,-6.030426l0.000031,-0.000031l0,0.000031z" id="path2889"/>
     <path fill="#664e3b" id="path2967" d="m122.133347,516.006165c-0.413063,0.267212 -2.462196,1.165649 -4.553596,1.996704c-4.416901,1.755005 -7.868309,6.094604 -9.109337,11.45343c-0.718971,3.104614 0.20491,23.372131 1.08963,23.90387c0.202515,0.121704 0.479553,-0.995239 0.615608,-2.482178c0.298386,-3.260742 3.247826,-6.430481 9.555992,-10.269714c6.665443,-4.056763 8.765213,-6.112061 9.913239,-9.703369c1.189316,-3.72052 0.630157,-13.003601 -0.76236,-12.655579c-2.010963,0.502441 -10.455353,8.127502 -12.350349,11.151855c-2.359375,3.765503 -2.970337,2.92981 -1.274216,-1.742798c0.76899,-2.11853 3.050766,-4.893982 6.525055,-7.936707c2.9384,-2.573425 5.458694,-4.869141 5.600609,-5.101563c0.304405,-0.498413 -4.158005,0.679749 -5.250275,1.386108l0,-0.000061z"/>
     <path fill="#664e3b" id="path2986" d="m194.959656,543.938904c2.009949,4.920593 -0.728165,19.79126 -5.677521,30.8349c-0.408859,0.912354 -0.611038,0.30481 -0.471207,-1.41626c0.209137,-2.574707 -0.512222,-3.870117 -4.948349,-8.886475c-2.856186,-3.229736 -7.079865,-8.113342 -9.385315,-10.852844l-4.192184,-4.980591l1.407227,-7.075928c0.773987,-3.891724 1.733734,-7.304749 2.132751,-7.584412c0.399017,-0.279663 2.82724,1.596985 5.396088,4.17041c4.194138,4.201599 5.835175,6.603882 8.693436,12.72583c0.481812,1.031982 0.700058,-0.241699 0.485062,-2.830383c-0.330551,-3.979065 -1.170853,-5.700195 -5.435364,-11.13269l-5.044312,-6.425964l5.169693,2.602478c6.459839,3.251892 10.139862,6.616272 11.869995,10.851929l0,0.000061l0,-0.000061z"/>
     <path fill="#664e3b" id="path3036" d="m128.673157,420.849457c-3.125595,-6.464874 -8.30336,-10.652008 -24.683273,-19.960754l-6.758415,-3.840851l2.999458,2.993561c3.816154,3.808319 5.174767,7.229614 6.002296,15.114197c1.063278,10.131012 2.527664,14.159119 6.668724,18.343536c1.96965,1.990356 5.559273,4.645905 7.976822,5.901276l4.395531,2.282471l-0.040298,-1.6633c-0.065521,-2.689636 -3.329933,-14.838074 -4.776688,-17.776398c-0.732635,-1.487885 -2.106537,-3.676544 -3.053177,-4.863647l-1.72113,-2.158356l2.600433,2.158508c5.101479,4.234619 8.40728,11.126099 10.524742,21.940491l0.705887,3.605164l0.534042,-3.019531c1.116074,-6.310333 0.472122,-15.236237 -1.374771,-19.056274l0,0l-0.000183,-0.000092z"/>
     <path fill="#664e3b" id="path3046" d="m284.368988,349.919281c3.468475,-1.724304 14.616119,-1.06543 23.115021,1.36618c0.702148,0.200867 0.270447,0.383118 -1.006409,0.424835c-1.910065,0.062439 -2.808716,0.644379 -6.16449,3.99231c-2.160675,2.155548 -5.434814,5.351563 -7.276337,7.101898l-3.347931,3.182587l-5.312256,-0.382996c-2.921753,-0.210693 -5.50528,-0.582581 -5.74115,-0.826477c-0.235901,-0.243896 0.961517,-2.008362 2.66095,-3.921112c2.774628,-3.122894 4.418182,-4.404205 8.706543,-6.787689c0.7229,-0.401794 -0.230682,-0.447388 -2.119049,-0.10141c-2.902649,0.531921 -4.105469,1.226501 -7.780396,4.492706l-4.346985,3.863495l1.524445,-3.647461c1.904846,-4.557709 4.102325,-7.272583 7.088043,-8.756866l0,0z"/>
     <path fill="#664e3b" d="m295.77243,399.419586c-0.332428,0.36261 -2.089172,1.748291 -3.903778,3.079346c-3.832397,2.811066 -6.079376,7.880096 -5.930511,13.378754c0.086304,3.185577 6.085724,22.566803 7.075897,22.858582c0.226654,0.066803 0.213379,-1.083954 -0.02951,-2.557251c-0.532623,-3.230682 1.523254,-7.041199 6.660919,-12.345703c5.428589,-5.60495 6.942902,-8.122925 7.149292,-11.887573c0.213745,-3.900146 -2.665771,-12.743011 -3.92572,-12.05542c-1.81958,0.992798 -8.070892,10.499115 -9.142975,13.903259c-1.334747,4.238373 -2.136475,3.583588 -1.672119,-1.365631c0.210541,-2.243896 1.719604,-5.504639 4.315399,-9.324432c2.195374,-3.230621 4.056122,-6.087158 4.134949,-6.347809c0.169006,-0.55899 -3.852722,1.70517 -4.731812,2.66394l-0.000031,-0.000061z" id="path3048"/>
     <path fill="#664e3b" id="path3050" d="m271.82724,376.581177c-0.441833,0.12796 -2.468292,0.367065 -4.503174,0.531525c-4.297577,0.347382 -8.806366,3.367004 -11.900101,7.969757c-1.792252,2.666565 -8.892563,21.699402 -8.374176,22.447723c0.118683,0.171265 0.778564,-0.782806 1.4664,-2.120209c1.508392,-2.932739 5.152588,-5.014465 11.806961,-6.744537c7.03125,-1.828094 9.547638,-3.123718 11.879974,-6.116791c2.41629,-3.1008 5.557007,-11.857697 4.281708,-11.938263c-1.841644,-0.116486 -11.713074,4.500916 -14.437378,6.75296c-3.391907,2.803986 -3.568298,1.853546 -0.36792,-1.982239c1.45105,-1.739105 4.395599,-3.648804 8.42041,-5.461121c3.403992,-1.532745 6.35791,-2.929321 6.56424,-3.103455c0.442444,-0.373444 -3.668671,-0.573395 -4.837036,-0.235291l0.000031,-0.000061l0.000061,0z"/>
    </g>
   </g>
  </g>
 </g>
</svg>