<?xml version="1.0" encoding="UTF-8" standalone="no"?>
<!-- Created with Inkscape (http://www.inkscape.org/) -->

<svg
   xmlns:dc="http://purl.org/dc/elements/1.1/"
   xmlns:cc="http://creativecommons.org/ns#"
   xmlns:rdf="http://www.w3.org/1999/02/22-rdf-syntax-ns#"
   xmlns:svg="http://www.w3.org/2000/svg"
   xmlns="http://www.w3.org/2000/svg"
   xmlns:sodipodi="http://sodipodi.sourceforge.net/DTD/sodipodi-0.dtd"
   xmlns:inkscape="http://www.inkscape.org/namespaces/inkscape"
   width="1280"
   height="1024"
   id="svg2"
   version="1.1"
   inkscape:version="0.47 r22583"
   sodipodi:docname="wandtattoo.svg"
   inkscape:export-filename="/home/starbuck/Desktop/Namenloser Ordner/wandtattoo.png"
   inkscape:export-xdpi="90"
   inkscape:export-ydpi="90">
  <defs
     id="defs4">
    <inkscape:perspective
       sodipodi:type="inkscape:persp3d"
       inkscape:vp_x="0 : 526.18109 : 1"
       inkscape:vp_y="0 : 1000 : 0"
       inkscape:vp_z="744.09448 : 526.18109 : 1"
       inkscape:persp3d-origin="372.04724 : 350.78739 : 1"
       id="perspective10" />
    <inkscape:perspective
       id="perspective2837"
       inkscape:persp3d-origin="0.5 : 0.33333333 : 1"
       inkscape:vp_z="1 : 0.5 : 1"
       inkscape:vp_y="0 : 1000 : 0"
       inkscape:vp_x="0 : 0.5 : 1"
       sodipodi:type="inkscape:persp3d" />
  </defs>
  <sodipodi:namedview
     id="base"
     pagecolor="#ffffff"
     bordercolor="#666666"
     borderopacity="1.0"
     inkscape:pageopacity="1"
     inkscape:pageshadow="2"
     inkscape:zoom="0.47558594"
     inkscape:cx="640"
     inkscape:cy="512"
     inkscape:document-units="px"
     inkscape:current-layer="layer1"
     showgrid="false"
     inkscape:window-width="1280"
     inkscape:window-height="751"
     inkscape:window-x="0"
     inkscape:window-y="24"
     inkscape:window-maximized="1"
     showguides="true"
     inkscape:guide-bbox="true" />
  <metadata
     id="metadata7">
    <rdf:RDF>
      <cc:Work
         rdf:about="">
        <dc:format>image/svg+xml</dc:format>
        <dc:type
           rdf:resource="http://purl.org/dc/dcmitype/StillImage" />
        <dc:title />
      </cc:Work>
    </rdf:RDF>
  </metadata>
  <g
     inkscape:label="Ebene 1"
     inkscape:groupmode="layer"
     id="layer1"
     transform="translate(0,-28.362182)">
    <g
       id="g2955"
       transform="matrix(0.61985218,0,0,0.61985218,664.01244,171.15896)">
      <path
         id="path3801"
         transform="translate(0,28.362182)"
         d="m 156.125,204.65625 c -35.03515,0.26643 -68.694543,30.1944 -74.90625,73.21875 -4.120907,28.54272 -0.1701,48.23967 14.71875,74.09375 5.74574,10.38412 20.36417,34.40373 32.84375,45.875 1.46863,1.34997 1.42311,5.08236 -1.6875,3.96875 -21.75131,-5.7339 -46.266505,-4.63875 -74.78125,0.875 l 5.625,3.375 c 69.80402,-10.47114 119.6043,26.53223 148.09375,72.125 2.12975,-0.15674 4.29898,-0.25 6.46875,-0.25 0.72518,0 1.43649,0.0129 2.15625,0.0312 -0.0154,-0.50001 -0.0312,-0.99626 -0.0312,-1.5 0,-2.68375 0.2332,-5.31111 0.65625,-7.875 -10.73454,-14.91023 -23.59508,-29.35221 -38.40625,-42.5625 -19.05518,-16.99559 -56.45181,-77.37795 -36.65625,-93.9375 19.96154,-16.6984 52.52459,1.94717 44,25.5625 -3.8575,10.68626 -16.62574,12.1196 -13.15625,3.75 4.07284,-9.82515 -6.76594,-18.99963 -18.53125,-9.75 -8.56943,6.73716 1.93473,20.69325 12.125,23.09375 14.61508,3.44288 28.22861,-9.29919 26.96875,-26.75 -1.43348,-19.85578 -33.44237,-35.46625 -51.6875,-21.25 -18.24513,14.21625 -8.17779,43.42673 1.78125,65.34375 4.82559,10.61976 0.23316,10.08257 -6.40625,3.28125 -18.08744,-18.52853 -25.91474,-29.12615 -36.4375,-49.96875 -7.685891,-15.22357 -8.383221,-30.21863 -5.15625,-38.03125 5.143869,-12.45319 14.54401,-15.43465 21.03125,-6.6875 6.31073,8.50919 11.1964,9.75866 13.90625,3.65625 3.16697,-7.13166 -7.94515,-18.0962 -17.09375,-16.875 -13.573197,1.8119 -21.497281,8.66526 -23.28125,20.21875 l -1.75,11.1875 -1.96875,-14.34375 c -2.543295,-18.30186 3.701421,-38.6873 14.40625,-47.125 11.95902,-9.42613 28.68671,-4.71275 40.40625,11.40625 10.00818,13.76524 18.52917,17.29281 22.15625,9.125 5.20379,-11.71826 -18.83885,-33.50489 -37.90625,-34.34375 -8.7651,-0.3857 -14.19743,1.0584 -20.59375,5.53125 -13.960235,9.76208 -13.201396,5.34847 1.6875,-9.84375 22.47993,-22.93786 42.6534,-24.83676 70.15625,-6.5 16.86666,11.24549 27.4897,9.1124 25.1875,-5.09375 -0.13797,-0.85169 -0.30959,-1.67164 -0.53125,-2.4375 -1.55104,-5.36134 -5.34698,-8.83505 -14.21875,-13.46875 -9.45727,-4.9395 -19.37766,-7.1996 -29.1875,-7.125 z m 275.96875,273.375 c -2.07871,0.0279 -4.23142,0.38312 -6.40625,1.0625 -4.42136,1.78537 -8.55319,5.01548 -11.5,8.71875 -7.82185,9.82975 -9.99746,35.67754 -8.09375,56.96875 5.02287,56.17631 9.09387,55.06457 -9.1875,85.34375 -20.16845,33.40471 -50.11604,31.38804 -96.46875,28.5625 -14.38101,-0.87663 -26.35485,-3.54243 -45.71875,-3.84375 -20.61015,-1.19753 -35.30157,2.74823 -51.5625,6.90625 4.48634,-3.33384 8.66215,-6.87343 12.5625,-10.59375 -1.07489,0.0395 -2.1342,0.0625 -3.21875,0.0625 -5.56437,0 -11.00864,-0.52896 -16.28125,-1.53125 -10.3086,9.2167 -22.96962,17.13782 -38.34375,22.65625 1.81552,3.33007 3.22592,6.89604 4.1875,10.65625 6.91233,-2.3096 13.46408,-5.00044 19.625,-8.0625 0.0125,-0.006 0.0188,-0.0251 0.0312,-0.0312 23.31911,-4.39462 48.67012,-7.0973 73.65625,-2.46875 23.08174,3.52416 41.12447,21.37063 54.8125,39.28125 4.0495,5.86267 7.6195,14.1172 9.125,20.84375 0.80536,3.5983 1.86142,9.89849 1.65625,12.46875 -0.4804,6.01817 -5.19451,7.28553 -9.125,9.65625 -4.88637,2.94728 -10.52302,6.26592 -13.5625,10.40625 -4.27627,5.82505 -3.21361,11.7564 1.75,15.21875 5.78449,3.71161 17.86144,3.82514 21.09375,-0.34375 2.48734,-3.20805 -0.53547,-6.7668 -10.25,-4.59375 -10.14229,2.26874 -8.07013,-5.73653 -4.125,-10.6875 2.89435,-3.63228 7.58329,-6.14373 11,-7.59375 9.0687,-3.84867 9.09417,-6.96798 7.8125,-12.0625 -0.81898,-3.25539 -0.14084,-3.33249 2.03125,-0.5625 18.22305,23.27908 33.85277,37.18568 47.875,40.75 14.02223,3.56432 19.42401,3.61992 26.96875,2.8125 7.54474,-0.80742 13.82522,-5.30749 14.625,-14.34375 0.92772,-10.48184 -19.14053,-18.61605 -29.09375,-13.90625 -2.03878,0.96474 -2.96523,4.56564 -0.625,7.75 3.88535,5.28658 10.72387,4.19574 9.9375,-0.625 -0.77182,-4.73111 4.10522,-2.94012 8.625,1.25 5.1975,4.81839 3.6006,9.12854 -1.84375,12.8125 -3.66301,2.47859 -6.96231,2.92758 -17.96875,2.3125 -14.45163,-2.40523 -22.8551,-7.50245 -30.3125,-13.78125 -8.34054,-7.02236 -15.21852,-15.70653 -22.21875,-27.3125 -5.41362,-8.97547 -10.2587,-18.84942 -19.40625,-34.625 -0.7245,-1.24945 -4.37423,-6.48157 -6.8125,-8.9375 -3.43761,-3.4625 -7.92232,-7.57179 -12.40625,-11.5 0.80344,0.47567 1.60664,0.93813 2.40625,1.4375 62.82695,28.92708 33.68274,27.81389 162.40625,77.53125 126.39359,48.81747 162.24257,20.98819 278.28125,1.8125 43.34552,-8.51058 96.00521,-30.21105 109.0625,-37.75 61.70476,-35.62679 69.70144,-4.62465 94.53125,0.8125 4.0925,0.7628 8.59315,1.10278 12.46875,0.6875 8.209,-0.8796 16.14075,-1.47144 24.84375,-17.5 6.4212,-11.82459 1.2136,-22.26367 -10.3125,-26.40625 -11.13255,-4.00083 -13.6128,1.60689 -6.125,13.8125 10.98415,21.44166 -3.1649,26.37244 -21.625,22.25 -14.9208,-3.33206 -12.59791,-6.43172 -27.75,-13.03125 -31.15245,-13.56853 -50.76779,7.58502 -40.96875,-5.46875 20.32659,-27.07801 53.07432,-64.12522 62.09375,-100.375 5.2791,-21.21748 1.31465,-55.46873 -8,-69.0625 -6.93021,-10.11246 -16.57366,-21.05128 -34.125,-20.96875 -1.81566,0.009 -3.7285,0.14934 -5.71875,0.40625 -26.79162,3.45836 -41.81479,35.71902 -20.0625,42.6875 5.03223,1.61196 12.29423,3.67169 18.625,-0.96875 10.50985,-7.70386 4.46713,-18.69021 -6.5,-16.1875 -10.76329,2.45622 -11.63872,-3.21855 -4.03125,-11.6875 8.74834,-9.73905 22.36687,-10.97422 33.78125,-2.96875 30.64245,27.25227 24.46263,79.03565 0.90625,115.90625 -11.22033,17.56213 -29.0967,36.88356 -38.4375,50.71875 -7.09752,10.51255 -43.12656,37.75377 -48.8125,38.21875 -1.3,0.10631 7.3655,-14.79006 10.5625,-24.40625 10.01102,-30.112 6.47719,-63.48651 -14.84375,-73.03125 -5.44366,-2.43696 -11.70629,-3.79812 -28.71875,2.25 20.53839,-3.94059 37.33726,4.31746 41.375,24.3125 5.86715,29.05438 -7.76185,55.34476 -23.28125,69.6875 -24.29325,22.45136 -150.11774,48.82009 -214.4375,47.71875 -8.19594,-0.14034 -13.63678,-1.15465 -4.15625,-6.96875 35.27318,-17.7412 51.88936,-33.73811 61.625,-59.1875 3.85604,-10.07985 4.51056,-19.80975 5.75,-34.46875 0.24588,-4.10707 3.9857,-17.2539 8.8125,-24.78125 23.94066,-33.04861 78.53279,-34.68259 84.71875,-8.96875 10.05741,27.54566 -11.17696,56.92238 -32.78125,43.65625 -12.41461,-7.62323 -11.3554,-29.37698 1.375,-28.6875 7.87668,0.42659 9.7063,5.79547 3.875,11.125 -3.41244,3.1188 -3.71273,4.56834 -1.0625,4.6875 5.91152,0.26581 11.41796,-6.91436 10.125,-13.25 -1.89233,-9.27263 -14.07489,-11.1828 -23.15625,-3.625 -18.36332,15.28253 -3.12643,42.85506 22.0625,40 10.29907,-1.16732 18.18983,-7.71666 24.78125,-20.3125 10.10304,-28.7426 -0.2736,-56.90373 -33.09375,-59.53125 -9.10984,-0.72931 -22.36323,1.40916 -29.875,5.03125 9.28787,-13.81626 21.86605,-26.78574 30.4375,-32.40625 10.93975,-7.17346 14.90957,-8.50891 24.8125,-8.46875 12.43068,0.0505 21.25097,6.27916 22.96875,15.75 2.17493,11.99171 -13.97091,21.14354 -20.75,12.3125 -4.15323,-5.41031 2.71187,-8.89103 4.09375,-5.34375 0.86151,2.21163 4.61893,1.24869 5.28125,-1.9375 2.04044,-9.81581 -7.99569,-11.43744 -12.34375,-2.21875 -4.77938,11.71555 5.32377,16.93862 14.28125,14.8125 18.32702,-5.51682 17.15338,-27.57149 -1.9375,-36.375 -6.25383,-2.88388 -14.38448,-3.21355 -22.875,-1.34375 -12.6617,3.23433 -27.13283,16.44632 -35.9375,26 -13.63363,14.79344 -27.12993,26.17277 -39.96875,39.84375 -4.42025,4.86288 -7.3049,11.52743 -7.40625,13.78125 -0.11419,2.53952 -4.60274,-15.63266 -12.1875,-26.53125 -13.18858,-18.95079 -23.9518,-25.63869 -37.28125,-28.96875 -9.68034,-2.52595 -23.12321,-0.49479 -18.9375,9.125 3.23477,7.4343 7.66947,2.57578 23.78125,4.84375 10.6234,1.4954 18.57044,5.58657 26.15625,14.8125 13.36445,16.25397 15.43432,35.2859 13.46875,56.4375 1.74171,38.71145 -32.78248,64.30653 -70.46875,80.125 -57.26311,22.7639 -166.76372,-28.16839 -224.7812,-61.68755 -17.84861,-10.3119 -30.46373,-17.69297 -42.6875,-23.96875 -9.91804,-5.09201 -19.57931,-9.45732 -31.5625,-14.0625 -0.93548,-0.23563 -3.69342,-1.86972 0.25,-1.3125 113.78631,8.23808 112.13062,-9.26614 151.21875,-79.625 20.09536,-30.62855 60.37272,-23.60246 60.5625,4.5 0.0768,11.3609 -9.90577,18.55935 -10.03125,9.5 -0.14732,-10.63484 -14.97987,-15.11894 -22.125,-1.96875 -5.20417,9.57816 9.97282,18.2339 20.28125,16.40625 14.78446,-2.62117 21.54128,-19.34298 14.1875,-35.21875 -6.84302,-14.77318 -17.37909,-18.53306 -33.84375,-17.53125 -18.64266,1.13434 -30.84728,13.88983 -42.90625,36.0625 0.29976,-36.87559 -11.21272,-66.46716 -2.71875,-94.28125 3.49376,-11.44056 6.09538,-15.42777 10.53125,-18.1875 6.59295,-4.10177 14.45201,-4.04388 17.71875,2.9375 2.8407,6.07087 0.71608,9.48227 -4.375,6.96875 -5.1875,-2.56116 -10.34301,6.47407 -5.96875,12.3125 2.6349,3.51665 9.18419,4.02293 11.875,3.4375 7.92291,-1.72375 9.83334,-14.60072 5.15625,-23.75 -3.58966,-6.20801 -9.17011,-9.115 -15.40625,-9.03125 z"
         style="fill:#552200;stroke:none" />
      <path
         id="path3839"
         transform="translate(0,28.362182)"
         d="m 128.65625,656.3125 c -2.38194,3.91606 -4.86944,7.75397 -7.53125,11.46875 13.02561,1.9742 23,13.20284 23,26.78125 0,14.97155 -12.12218,27.09375 -27.09375,27.09375 -12.82152,0 -23.555763,-8.88559 -26.375,-20.84375 -3.491948,2.95918 -7.101944,5.77554 -10.8125,8.46875 5.858177,14.79363 20.30276,25.25 37.1875,25.25 22.08301,0 39.96875,-17.8857 39.96875,-39.96875 0,-18.03231 -11.94515,-33.26828 -28.34375,-38.25 z"
         style="fill:#008000;fill-opacity:1;stroke:none" />
      <path
         id="path3841"
         transform="translate(0,28.362182)"
         d="m 117.03125,673.96875 c -0.19855,0 -0.39654,0.0257 -0.59375,0.0312 -6.06251,7.74188 -12.75309,14.96287 -19.96875,21.625 5.38e-4,0.0106 -5.54e-4,0.0207 0,0.0312 0.567832,10.85585 9.56644,19.5 20.5625,19.5 11.36181,0 20.59375,-9.23196 20.59375,-20.59375 0,-11.3618 -9.23194,-20.59375 -20.59375,-20.59375 z m 0,15.46875 c 2.84043,0 5.125,2.28455 5.125,5.125 0,2.84044 -2.28457,5.125 -5.125,5.125 -2.84044,0 -5.125,-2.28456 -5.125,-5.125 0,-2.84045 2.28456,-5.125 5.125,-5.125 z"
         style="fill:#552200;fill-opacity:1;stroke:none" />
      <path
         id="path3649"
         transform="translate(0,28.362182)"
         d="m 212.5,484 c -25.79177,0 -48.75315,12.13638 -63.5,31 2.61915,9.86405 4.41414,20.05325 5.34375,30.5 8.01486,-24.45379 31.02403,-42.125 58.15625,-42.125 3.78845,0 7.49565,0.37212 11.09375,1.03125 -4.23583,-5.91803 -7.18408,-12.8461 -8.375,-20.34375 C 214.32018,484.03281 213.4058,484 212.5,484 z m 67.8125,37.15625 c -5.46344,2.15896 -11.39393,3.34375 -17.625,3.34375 -1.39252,0 -2.79379,-0.0714 -4.15625,-0.1875 9.42139,10.76273 15.15625,24.82356 15.15625,40.25 0,33.79105 -27.39645,61.1875 -61.1875,61.1875 -27.60542,0 -50.94337,-18.28833 -58.5625,-43.40625 -1.16589,10.40925 -3.21717,20.54064 -6.0625,30.34375 14.68912,19.69661 38.17291,32.4375 64.625,32.4375 44.48338,0 80.53125,-36.07916 80.53125,-80.5625 0,-15.98925 -4.68633,-30.87386 -12.71875,-43.40625 z"
         style="fill:#552200;fill-opacity:1;stroke:none" />
      <g
         style="fill:#008000"
         transform="matrix(0.81616957,0,0,0.81616957,-766.29571,-393.52342)"
         id="g3089">
        <path
           id="path3664"
           d="m 857.80719,812.95975 c -27.05695,0 -48.97016,21.91321 -48.97016,48.97015 0,27.05694 21.91321,48.97015 48.97016,48.97015 27.0569,0 48.9701,-21.91321 48.9701,-48.97015 0,-27.05694 -21.9132,-48.97015 -48.9701,-48.97015 z m 0,15.76636 c 18.3437,0 33.2038,14.86011 33.2038,33.20379 0,18.34368 -14.8601,33.20379 -33.2038,33.20379 -18.34369,0 -33.20381,-14.86011 -33.20381,-33.20379 0,-18.34368 14.86012,-33.20379 33.20381,-33.20379 z"
           style="fill:#008000;fill-opacity:1;stroke:none" />
        <path
           id="path3666"
           d="m 857.80719,836.70426 c -13.92092,0 -25.22563,11.30476 -25.22563,25.22564 0,13.92087 11.30471,25.22563 25.22563,25.22563 13.9209,0 25.2256,-11.30476 25.2256,-25.22563 0,-13.92088 -11.3047,-25.22564 -25.2256,-25.22564 z m 0,18.95369 c 3.4802,0 6.2719,2.79173 6.2719,6.27195 0,3.48021 -2.7917,6.27194 -6.2719,6.27194 -3.4802,0 -6.27202,-2.79173 -6.27202,-6.27194 0,-3.48022 2.79182,-6.27195 6.27202,-6.27195 z"
           style="fill:#552200;fill-opacity:1;stroke:none" />
      </g>
      <path
         style="fill:#008000;fill-opacity:1;stroke:none"
         d="m -221.85705,877.67292 c 20.03778,-17.74786 21.89277,-48.35761 4.1449,-68.39539 -17.74792,-20.03788 -48.35777,-21.89281 -68.39555,-4.14495 -17.33465,15.35381 -21.06277,40.33713 -10.26194,59.76896 6.20917,-2.22915 12.96009,-2.31474 19.16354,-0.27902 -0.46562,-0.46655 -0.90951,-0.95217 -1.35228,-1.45218 -12.03257,-13.58495 -10.77649,-34.31118 2.80846,-46.34375 13.5849,-12.03241 34.31124,-10.77639 46.34371,2.80861 12.03251,13.58485 10.77639,34.31125 -2.80851,46.34366 -9.29237,8.23037 -21.93258,10.26839 -32.84745,6.37068 0.23173,0.24407 0.46987,0.45577 0.69469,0.70968 4.29094,4.84457 6.66722,10.72075 7.24355,16.70472 12.44067,0.80809 25.19108,-3.16657 35.26688,-12.09102 z"
         id="path3072" />
      <path
         style="fill:#552200;stroke:none"
         d="m -237.43457,860.0907 c 10.30941,-9.13134 11.2662,-24.91872 2.1348,-35.22824 -9.13124,-10.30947 -24.91872,-11.2662 -35.22813,-2.13486 -10.30958,9.1313 -11.26621,24.91872 -2.13497,35.22819 9.1314,10.30952 24.91872,11.26621 35.2283,2.13491 z m -12.43271,-14.03674 c -2.5773,2.28281 -6.47599,2.04653 -8.75879,-0.53077 -2.28287,-2.57741 -2.04659,-6.47609 0.53071,-8.75889 2.57741,-2.28287 6.47609,-2.04659 8.75896,0.53081 2.2828,2.5773 2.04658,6.47609 -0.53088,8.75885 z"
         id="path3074" />
      <g
         id="g3076"
         transform="matrix(-1.4420747,1.2772773,-1.2772773,-1.4420747,1842.7336,923.86956)"
         style="fill:#008000">
        <path
           id="path3078"
           d="m 816.61292,731.27767 c -7.56049,0 -13.69306,6.13256 -13.69306,13.69305 0,7.56049 6.13257,13.69306 13.69306,13.69306 7.56049,0 13.69305,-6.13257 13.69305,-13.69306 0,-7.56049 -6.13256,-13.69305 -13.69305,-13.69305 z m 0,3.19034 c 5.79638,0 10.50271,4.70633 10.50271,10.50271 0,5.79638 -4.70633,10.50272 -10.50271,10.50272 -5.79638,0 -10.50271,-4.70634 -10.50271,-10.50272 0,-5.79638 4.70633,-10.50271 10.50271,-10.50271 z"
           style="fill:#552200;fill-opacity:1;stroke:none" />
        <path
           transform="matrix(0.1555844,0,0,0.1555844,783.40838,669.6851)"
           d="m 237.38585,483.89883 c 0,13.24994 -10.74119,23.99113 -23.99112,23.99113 -13.24993,0 -23.99112,-10.74119 -23.99112,-23.99113 0,-13.24993 10.74119,-23.99112 23.99112,-23.99112 13.24993,0 23.99112,10.74119 23.99112,23.99112 z"
           sodipodi:ry="23.991123"
           sodipodi:rx="23.991123"
           sodipodi:cy="483.89883"
           sodipodi:cx="213.39473"
           id="path3080"
           style="fill:#008000;fill-opacity:1;stroke:none"
           sodipodi:type="arc" />
      </g>
      <g
         style="fill:#502d16"
         transform="matrix(1.6041108,0,0,1.6041108,-918.83881,-550.88594)"
         id="g2935">
        <path
           style="fill:#502d16;stroke:none"
           d="m 297.22537,726.89421 c -8.64947,0 -15.65293,7.00346 -15.65293,15.65293 0,8.64946 7.00346,15.69019 15.65293,15.69019 8.64947,0 15.65293,-7.04073 15.65293,-15.69019 0,-8.64947 -7.00346,-15.65293 -15.65293,-15.65293 z m 0,3.01878 c 6.98611,0 12.63415,5.64804 12.63415,12.63415 0,6.9861 -5.64804,12.67141 -12.63415,12.67141 -6.98611,0 -12.63415,-5.68531 -12.63415,-12.67141 0,-6.98611 5.64804,-12.63415 12.63415,-12.63415 z"
           id="path3789" />
        <path
           sodipodi:type="arc"
           style="fill:#502d16;stroke:none"
           id="path3793"
           sodipodi:cx="21.086935"
           sodipodi:cy="472.53461"
           sodipodi:rx="15.152288"
           sodipodi:ry="15.152288"
           d="m 36.239223,472.53461 c 0,8.36837 -6.78391,15.15229 -15.152288,15.15229 -8.368378,0 -15.1522884,-6.78392 -15.1522884,-15.15229 0,-8.36838 6.7839104,-15.15229 15.1522884,-15.15229 8.368378,0 15.152288,6.78391 15.152288,15.15229 z"
           transform="matrix(0.298151,0,0,0.298151,290.93962,601.67658)" />
      </g>
      <g
         style="fill:#502d16"
         transform="matrix(1.6041108,0,0,1.6041108,-1405.9581,-405.42365)"
         id="g2942">
        <path
           id="path3785"
           d="m 383.49002,605.1371 c -5.93545,0 -10.7499,4.81444 -10.7499,10.74989 0,5.93545 4.81445,10.74989 10.7499,10.74989 5.93545,0 10.74988,-4.81444 10.74988,-10.74989 0,-5.93545 -4.81443,-10.74989 -10.74988,-10.74989 z m 0,2.50461 c 4.55051,0 8.24528,3.69476 8.24528,8.24528 0,4.55051 -3.69477,8.24528 -8.24528,8.24528 -4.55052,0 -8.24528,-3.69477 -8.24528,-8.24528 0,-4.55052 3.69476,-8.24528 8.24528,-8.24528 z"
           style="fill:#502d16;stroke:none" />
        <g
           style="fill:#502d16"
           id="g2939">
          <path
             sodipodi:type="arc"
             style="fill:#502d16;stroke:none"
             id="path3787"
             sodipodi:cx="213.39473"
             sodipodi:cy="483.89883"
             sodipodi:rx="23.991123"
             sodipodi:ry="23.991123"
             d="m 237.38585,483.89883 c 0,13.24994 -10.74119,23.99113 -23.99112,23.99113 -13.24993,0 -23.99112,-10.74119 -23.99112,-23.99113 0,-13.24993 10.74119,-23.99112 23.99112,-23.99112 13.24993,0 23.99112,10.74119 23.99112,23.99112 z"
             transform="matrix(0.06854398,0,0,0.06854398,368.86063,582.71964)" />
        </g>
      </g>
      <g
         style="fill:#552200"
         transform="matrix(1.6041108,0,0,1.6041108,-1168.3057,-490.91489)"
         id="g2957">
        <path
           style="fill:#552200;stroke:none"
           d="m 539.34961,570.80108 c -6.93415,0 -12.55869,5.62452 -12.55869,12.55867 0,6.93415 5.62454,12.55868 12.55869,12.55868 6.93415,0 12.55867,-5.62453 12.55867,-12.55868 0,-6.93415 -5.62452,-12.55867 -12.55867,-12.55867 z m 0,2.92603 c 5.31619,0 9.63263,4.31645 9.63263,9.63264 0,5.31619 -4.31644,9.63264 -9.63263,9.63264 -5.31619,0 -9.63264,-4.31645 -9.63264,-9.63264 0,-5.31619 4.31645,-9.63264 9.63264,-9.63264 z"
           id="path3779" />
        <path
           sodipodi:type="arc"
           style="fill:#552200;stroke:none"
           id="path3781"
           sodipodi:cx="213.39473"
           sodipodi:cy="483.89883"
           sodipodi:rx="23.991123"
           sodipodi:ry="23.991123"
           d="m 237.38585,483.89883 c 0,13.24994 -10.74119,23.99113 -23.99112,23.99113 -13.24993,0 -23.99112,-10.74119 -23.99112,-23.99113 0,-13.24993 10.74119,-23.99112 23.99112,-23.99112 13.24993,0 23.99112,10.74119 23.99112,23.99112 z"
           transform="matrix(0.09312219,0,0,0.09312219,519.47448,538.29939)" />
      </g>
      <path
         style="fill:#552200;stroke:none"
         d="m -45.819681,374.93275 c -9.9589,0 -18.0369,8.07797 -18.0369,18.03682 0,9.95885 8.078,18.03681 18.0369,18.03681 9.9588,0 18.0368,-8.07796 18.0368,-18.03681 0,-9.95885 -8.078,-18.03682 -18.0368,-18.03682 z m 0,4.20239 c 7.6351,0 13.8344,6.19929 13.8344,13.83443 0,7.63512 -6.1993,13.83443 -13.8344,13.83443 -7.6352,0 -13.8345,-6.19931 -13.8345,-13.83443 0,-7.63514 6.1993,-13.83443 13.8345,-13.83443 z"
         id="path3773" />
      <path
         id="path3726"
         d="m -237.28899,535.09123 c -36.84612,0 -66.71824,29.87211 -66.71824,66.71827 0,10.01416 2.20431,19.52067 6.15768,28.03842 2.0207,-1.16436 4.31564,-1.85328 6.81531,-1.85328 7.60442,0 13.80997,6.20555 13.80997,13.80996 0,3.92473 -1.6698,7.41592 -4.30441,9.92404 11.77695,10.4334 27.25949,16.73935 44.23969,16.73935 15.9652,0 30.6005,-5.66319 42.0875,-15.00562 -2.5372,-6.72824 -4.6718,-13.65986 -6.3968,-20.74485 -8.6664,9.96805 -21.4326,16.26108 -35.6907,16.26108 -26.09932,0 -47.28864,-21.06975 -47.28864,-47.1691 0,-26.09934 21.18932,-47.28867 47.28864,-47.28867 12.3572,0 23.6219,4.78824 32.0439,12.55453 0.929,-7.26935 2.2945,-14.43152 4.0653,-21.40247 -10.4103,-6.71376 -22.8049,-10.58166 -36.1092,-10.58166 z"
         style="fill:#008000;fill-opacity:1;stroke:none" />
      <path
         id="path3728"
         d="m -237.28899,562.83073 c -21.49352,0 -38.91897,17.48518 -38.91897,38.97877 0,21.4936 17.42545,38.85922 38.91897,38.85922 14.1872,0 26.612,-7.56321 33.4189,-18.89155 -1.8308,-10.28832 -2.8098,-20.87086 -2.8098,-31.68522 0,-3.94744 0.1678,-7.89321 0.4185,-11.77733 -7.1134,-9.36754 -18.3673,-15.48389 -31.0276,-15.48389 z m 0,17.21761 c 11.9751,0 21.6416,9.78615 21.6416,21.76116 0,11.97501 -9.6665,21.64159 -21.6416,21.64159 -11.975,0 -21.64162,-9.66658 -21.64162,-21.64159 0,-11.97501 9.66662,-21.76116 21.64162,-21.76116 z"
         style="fill:#552200;stroke:none" />
      <g
         style="fill:#552200"
         transform="matrix(1.6041108,0,0,1.6041108,-1168.3057,-490.91489)"
         id="g2996">
        <path
           style="fill:#552200;stroke:none"
           d="m 671.14396,778.69794 c -9.98016,0 -18.0754,8.09524 -18.0754,18.0754 0,9.98017 8.09524,18.07541 18.0754,18.07541 9.98016,0 18.07541,-8.09524 18.07541,-18.07541 0,-9.98016 -8.09525,-18.0754 -18.07541,-18.0754 z m 0,4.21138 c 7.65146,0 13.86402,6.21256 13.86402,13.86402 0,7.65146 -6.21256,13.86402 -13.86402,13.86402 -7.65146,0 -13.86402,-6.21256 -13.86402,-13.86402 0,-7.65146 6.21256,-13.86402 13.86402,-13.86402 z"
           id="path3686" />
        <path
           sodipodi:type="arc"
           style="fill:#552200;stroke:none"
           id="path3690"
           sodipodi:cx="213.39473"
           sodipodi:cy="483.89883"
           sodipodi:rx="23.991123"
           sodipodi:ry="23.991123"
           d="m 237.38585,483.89883 c 0,13.24994 -10.74119,23.99113 -23.99112,23.99113 -13.24993,0 -23.99112,-10.74119 -23.99112,-23.99113 0,-13.24993 10.74119,-23.99112 23.99112,-23.99112 13.24993,0 23.99112,10.74119 23.99112,23.99112 z"
           transform="matrix(0.23852079,0,0,0.23852079,620.24007,681.35537)" />
      </g>
      <path
         id="path3678"
         d="m -155.98359,660.63635 c -32.0185,0 -57.9899,25.97132 -57.9899,57.9899 0,32.01857 25.9714,57.93011 57.9899,57.93011 32.0186,0 57.989909,-25.91154 57.989909,-57.93011 0,-32.01858 -25.971309,-57.9899 -57.989909,-57.9899 z m 0,16.9187 c 22.6798,0 41.0712,18.39139 41.0712,41.0712 0,22.67982 -18.3914,41.01141 -41.0712,41.01141 -22.6798,0 -41.0712,-18.33159 -41.0712,-41.01141 0,-22.67981 18.3914,-41.0712 41.0712,-41.0712 z"
         style="fill:#552200;stroke:none" />
      <path
         id="path3682"
         d="m -155.98359,684.78885 c -18.6775,0 -33.8374,15.15989 -33.8374,33.8374 0,18.6775 15.1599,33.77762 33.8374,33.77762 18.6775,0 33.8374,-15.10012 33.8374,-33.77762 0,-18.67751 -15.1599,-33.8374 -33.8374,-33.8374 z m 0,14.94584 c 10.4061,0 18.8318,8.48552 18.8318,18.89156 0,10.40605 -8.4257,18.83177 -18.8318,18.83177 -10.406,0 -18.8317,-8.42572 -18.8317,-18.83177 0,-10.40604 8.4257,-18.89156 18.8317,-18.89156 z"
         style="fill:#008000;fill-opacity:1;stroke:none" />
      <path
         id="path3670"
         d="m 0.5064193,700.74627 c -32.2408003,0 -58.3523003,26.11153 -58.3523003,58.35224 0,32.24072 26.1115,58.35223 58.3523003,58.35223 32.2406997,0 58.3521997,-26.11151 58.3521997,-58.35223 0,-32.24071 -26.1115,-58.35224 -58.3521997,-58.35224 z m 0,18.787 c 21.8579997,0 39.5651997,17.70713 39.5651997,39.56524 0,21.8581 -17.7072,39.56524 -39.5651997,39.56524 -21.8581993,0 -39.5653003,-17.70714 -39.5653003,-39.56524 0,-21.85811 17.707101,-39.56524 39.5653003,-39.56524 z"
         style="fill:#552200;stroke:none" />
      <path
         id="path3672"
         d="m 0.5064193,729.03995 c -16.5879993,0 -30.0586003,13.47062 -30.0586003,30.05856 0,16.58794 13.470601,30.05855 30.0586003,30.05855 16.5878997,0 30.0584997,-13.47061 30.0584997,-30.05855 0,-16.58794 -13.4706,-30.05856 -30.0584997,-30.05856 z m 0,22.58498 c 4.1469,0 7.4735,3.32661 7.4735,7.47358 0,4.14698 -3.3266,7.47357 -7.4735,7.47357 -4.147,0 -7.4735997,-3.32659 -7.4735997,-7.47357 0,-4.14697 3.3265997,-7.47358 7.4735997,-7.47358 z"
         style="fill:#008000;fill-opacity:1;stroke:none" />
      <path
         id="path2849"
         d="m -169.97289,327.28412 c -55.4988,0 -100.49586,44.99704 -100.49586,100.4959 0,55.49885 44.99706,100.49589 100.49586,100.49589 55.4989,0 100.495909,-44.99704 100.495909,-100.49589 0,-55.49886 -44.997009,-100.4959 -100.495909,-100.4959 z m 0,29.95149 c 38.9559,0 70.544409,31.58849 70.544409,70.54441 0,38.95591 -31.588509,70.48463 -70.544409,70.48463 -38.9559,0 -70.5444,-31.52872 -70.5444,-70.48463 0,-38.95592 31.5885,-70.54441 70.5444,-70.54441 z"
         style="fill:#552200;stroke:none" />
      <path
         id="path3625"
         d="m -169.97289,366.86074 c -33.6195,0 -60.9193,27.29978 -60.9193,60.91928 0,33.61949 27.2998,60.8595 60.9193,60.8595 33.6195,0 60.85951,-27.24001 60.85951,-60.8595 0,-33.6195 -27.24001,-60.91928 -60.85951,-60.91928 z m 0,28.03841 c 18.1439,0 32.8211,14.73702 32.8211,32.88087 0,18.14384 -14.6772,32.82109 -32.8211,32.82109 -18.1438,0 -32.8809,-14.67725 -32.8809,-32.82109 0,-18.14385 14.7371,-32.88087 32.8809,-32.88087 z"
         style="fill:#008000;fill-opacity:1;stroke:none" />
      <path
         id="path3629"
         d="m -26.970981,417.13858 c -11.3295,0 -22.3985,1.08901 -33.12,3.16852 0.1659,2.47196 0.2989,4.95896 0.2989,7.47292 0,16.57998 -3.7217,32.28827 -10.2827,46.39193 13.4299,-4.99814 27.9342,-7.77185 43.1038,-7.77185 68.3063,0 123.691903,55.38558 123.691903,123.69185 0,48.6377 -28.098003,90.69349 -68.930303,110.89821 15.6768,7.57003 27.7965,21.25608 33.3591,37.96247 50.787401,-30.13096 84.832701,-85.52318 84.832701,-148.86068 0,-95.52205 -77.431301,-172.95337 -172.953401,-172.95337 z M -136.55389,532.75967 c -10.5411,3.35264 -21.7673,5.20117 -33.419,5.20117 -7.2863,0 -14.3919,-0.74245 -21.2829,-2.09242 -5.6261,17.05549 -8.6686,35.28287 -8.6686,54.22353 0,25.49075 5.5203,49.71783 15.4242,71.50095 8.5911,-4.30988 18.2503,-6.75552 28.5166,-6.75552 10.0006,0 19.4348,2.29389 27.8591,6.39682 -14.1929,-20.12033 -22.5383,-44.64373 -22.5383,-71.14225 0,-20.69769 5.1196,-40.18868 14.1089,-57.33228 z m 38.082009,158.24667 c 4.0152,8.3514 6.2772,17.67391 6.2772,27.56015 0,10.34239 -2.5052,20.11758 -6.8751,28.75581 10.6946,4.91096 21.9841,8.7583 33.7179,11.41863 0.1976,-18.22761 7.9331,-34.66043 20.2068,-46.33213 -19.6531,-2.8959 -37.82,-10.40763 -53.3268,-21.40246 z"
         style="fill:#008000;fill-opacity:1;stroke:none" />
      <path
         id="path3639"
         d="m -26.970981,485.71014 c -57.6334,0 -104.381809,46.74841 -104.381809,104.38181 0,57.63343 46.748409,104.32205 104.381809,104.32205 57.6334,0 104.322,-46.68862 104.322,-104.32205 0,-57.6334 -46.6886,-104.38181 -104.322,-104.38181 z m 0,49.32131 c 30.4177003,0 55.0605,24.64288 55.0605,55.0605 0,30.41765 -24.6427997,55.06051 -55.0605,55.06051 -30.4176,0 -55.1203,-24.64286 -55.1203,-55.06051 0,-30.41762 24.7027,-55.0605 55.1203,-55.0605 z"
         style="fill:#552200;stroke:none" />
      <path
         sodipodi:nodetypes="cssssssscsssssscscsscsssssssscsccccssssssccsssssssccsscsssssscssssssssssssssscccssccsssssssssssssccscccccssssssssccssssssssssssssssssssssssssssccssc"
         id="path2983"
         d="m -713.88059,198.80073 c -3.70834,-0.0432 -7.29235,0.84498 -10.28125,3.03125 -11.02844,8.0669 -6.09961,30.8094 5.65625,28.9375 2.7195,-0.43301 6.26165,-3.391 7.4375,-7.625 1.95214,-7.02931 -3.13002,-9.83454 -7.03125,-5.5625 -3.82868,4.1926 -7.06392,1.78198 -6.625,-4.90625 0.50473,-7.69133 5.9919,-11.95506 13.625,-10.53125 5.13566,0.95796 9.05776,2.52199 16.0625,12.21875 31.01901,42.94005 13.28067,66.97801 49,127.1875 -19.29561,-16.27039 -35.28345,-23.72179 -53.0625,-18 -15.70196,5.05333 -24.15309,12.37484 -25.15625,28.625 -1.07801,17.46299 11.27431,30.59013 26,27.65625 10.26741,-2.04561 21.2681,-15.62591 12.9375,-22.65625 -11.43731,-9.65214 -23.63582,-0.0855 -19.90625,9.875 3.17707,8.4849 -8.72187,5.42373 -12.78125,-5.1875 -10.04126,-26.24798 24.92472,-47.44422 54.78125,-26.21875 41.21007,34.03371 61.92494,59.03641 91.59375,78.9375 24.34267,16.32845 70.03719,38.37093 95.25,51.125 25.65542,12.88746 54.17914,19.78901 88.3125,21.375 4.89327,0.22738 4.16216,0.78573 -4.6875,3.4375 -31.10056,9.31924 -56.58897,20.77712 -82.3125,37.09375 -49.29,31.09888 -147.51492,92.7768 -213.25,73.25 -48.98832,-14.55212 -73.1767,-37.96408 -119.5,-91.375 -10.0294,-11.56392 -7.127,-18.7229 -4.5625,-32.9375 2.9378,-16.28371 6.81046,-25.11089 17.46875,-31 10.26049,-5.6693 20.55998,-10.37544 20.125,-14.9375 -0.7496,-7.86189 -14.95704,-4.40067 -26.28125,6.46875 -9.10721,8.74152 -15.9136,27.17428 -17.28125,46.78125 -0.66569,9.54335 -1.76858,14.49079 -2.875,13.03125 -0.98194,-1.29534 -5.52172,-3.60555 -10.03125,-5.15625 -37.77153,-21.46799 -71.70806,15.18426 -99.28125,20.78125 -23.48896,4.76794 -44.86712,1.72995 -61.03125,-21.90625 -12.70531,-19.43026 -30.39471,-58.69751 1.375,-69.875 l 5.90625,-0.34375 -6,2.375 c -10.87596,4.2969 -9.04046,18.27482 2.40625,18.34375 8.17275,0.0492 12.64877,-4.79081 11.875,-12.90625 -0.84206,-8.83156 -6.68493,-14.13504 -14.65625,-13.375 -1.52728,0.14566 -2.94557,0.49453 -4.3125,1 -9.56846,3.53824 -18.56676,14.72186 -16.68746,33.4375 6.1511,61.25993 58.20102,88.23274 108.93746,58 19.89267,-11.85361 38.81652,-16.00175 24.3125,-5.46875 -17.85133,15.65399 -13.02954,35.92809 4.71875,48.84375 9.06133,4.77494 16.41394,5.42629 23,1.90625 16.10787,-8.60907 13.89238,-31.19632 -3.25,-32.75 -8.47756,-0.76835 -14.92019,5.35121 -12.25,11.625 1.82445,4.28664 8.03997,6.29426 11.4375,3.71875 1.52318,-1.15465 0.73711,-1.88964 -2.5625,-2.34375 -5.63849,-0.77602 -6.74736,-4.71286 -2.25,-8.1875 7.26869,-5.61578 16.77667,6.83831 12.53125,16.4375 -7.38805,16.70478 -31.98014,7.98277 -37.28125,-12.46875 -6.84814,-17.78157 26.18908,-39.15317 53.90598,-29.3432 5.94163,2.49045 13.5496,8.75778 15.37527,11.0932 44.48538,56.90588 83.67761,87.45584 129.65625,98.4375 13.82177,3.30123 26.69324,4.93214 38.75,5.25 -115.26269,24.25419 -226.00826,-32.99033 -286.96875,-42.34375 -22.36941,-3.43224 -27.82432,-1.4049 -35.8125,0.53125 -40.66566,9.85639 -37.79846,-30.64579 -57.40626,-31.9375 -3.8969,-0.25672 -4.8433,-0.43901 -7.4375,-0.375 -3.3354,0.0823 -6.2265,1.61014 -9.4688,4.6875 -5.3465,5.07456 -6.152,13.04458 -1.8125,17.78125 4.1911,4.57468 6.7415,1.72564 6.3125,-7.03125 0.4094,-23.66325 23.2862,-8.54167 30.7188,5.84375 10.59352,20.50314 29.84783,14.44235 21.15626,20.9375 -16.28906,12.17273 -40.87246,27.85018 -54.18756,47.71875 -7.7935,11.6294 -14.5585,32.86817 -13.625,42.8125 0.7664,8.16316 2.8403,17.56034 13.4375,20.09375 13.3738,3.19716 28.4965,-13.09928 20.0938,-21.53125 -1.9438,-1.95058 -4.8016,-4.62123 -8.9221,-3.09437 -6.8407,2.53489 -6.7784,10.26275 -1.0308,10.9226 5.6407,0.64756 4.5997,4.23514 -1.0784,7.79677 -6.5296,4.09579 -13.1832,2.14571 -16.5,-4.875 -2.2315,-4.72366 -2.1735,-8.4531 0.5,-20.125 1.8051,-7.88053 5.6949,-18.58228 8.5938,-23.78125 9.8673,-17.69647 33.6958,-41.08835 50.81251,-49.8125 7.23997,-3.69009 30.0756,-11.99874 31.84375,-11.59375 0.65712,0.15046 -3.63937,3.66541 -9.53125,7.8125 -13.42275,9.44779 -25.59284,28.8604 -29.28125,46.6875 l -2.40625,11.625 3.71875,-9.96875 c 6.31848,-17.04885 14.25598,-29.3225 24.125,-37.25 17.92363,-14.39752 31.16793,-17.56114 67.71875,-9.84375 46.98596,9.92069 185.22248,73.17528 312.125,19.78125 51.90102,-17.7998 86.66581,-58.0179 124.75,-70.09375 -52.1427,40.82262 -75.10519,115.57678 -126.87431,159.99986 -13.59155,11.66291 -30.10043,16.36894 -38.81319,16.84389 -8.71276,0.47494 -15.97972,-3.51502 -18.4375,-10.90625 -2.3041,-6.929 0.95255,-17.25954 7.0625,-22.46875 4.79138,-4.08508 7.75208,-10.67038 5.875,-13.03125 -4.13355,-5.19892 -15.35734,2.55291 -19.21875,13.28125 -3.8311,10.64414 -2.3184,19.40731 4.5625,26.5625 3.40057,3.53613 5.28205,6.63728 4.15625,6.875 -2.82598,0.59666 -15.90315,-3.35866 -25,-13.1875 -9.09685,-9.82883 -14.42053,-31.69564 -4.8125,-38.15625 9.52001,-6.40141 9.60942,-13.64355 3.84375,-15.71875 -13.0616,-4.70122 -25.39653,20.08499 -9.71875,47.5625 15.67777,27.47751 47.27176,30.58281 82.12569,15.06277 34.84438,-15.51578 84.0726,-110.03052 133.37294,-157.15638 19.2308,-22.49719 36.89279,-23.61875 24.28262,-5.12514 -67.1471,117.92874 -142.51241,210.18312 -258.96875,253.25 -31.16611,11.52559 -73.83981,2.28893 -92.40625,-13.9375 -15.11434,-12.27124 -10.15672,-34.52501 2.40625,-50.25 -41.68955,43.90369 4.01123,76.83192 53.8125,74.5625 12.50059,-1.93321 7.27633,-0.0442 -10.375,5.40625 -51.11445,9.66504 -139.95691,-3.02562 -143.53125,-68.34375 -0.38937,-13.32012 7.3919,-25.36022 17.53125,-27.09375 10.18551,-1.74141 16.17588,13.63639 6.4375,16.53125 -5.62403,1.67182 -7.76273,-0.47269 -3.125,-3.15625 2.83937,-1.643 2.96575,-2.51136 0.5625,-4.15625 -4.35808,-2.98278 -9.09673,2.33049 -5.90625,6.625 3.54252,4.76841 13.21831,2.75557 15.03125,-3.125 1.73502,-5.62753 -1.47086,-12.30567 -5.92218,-14.23434 -25.83479,-11.19375 -40.43981,25.06329 -23.70282,56.60934 16.73698,31.54604 73.53565,51.5932 119,46.96875 216.05208,-21.89346 308.39688,-228.92557 357.375,-293.21875 41.87855,-25.83794 90.30446,-36.56996 132.1875,-29.3125 19.46582,3.37301 20.12895,3.36919 19.03125,-0.65625 -1.0803,-3.96127 -2.46787,-4.46349 -26.8125,-8.9375 -27.26407,-5.01056 -44.95806,-6.25631 -75.9375,-5.40625 -11.63546,0.31928 -30.31984,-1.10268 -47.625,-3.65625 -26.8892,-3.96778 -29.39113,-4.64289 -44.90625,-12.1875 -27.03682,-13.14736 -41.8761,-30.41965 -38.90625,-45.3125 1.91717,-9.61401 7.96705,-13.14689 18.03125,-10.4375 9.25141,2.49061 12.7499,1.10346 13.28125,-5.3125 0.43721,-5.27879 -7.73134,-10.63889 -15.9375,-10.46875 -13.10472,0.27176 -24.60111,15.1345 -22.25,28.78125 1.69193,9.82064 4.38654,14.65415 13.125,23.5625 8.84376,9.01566 7.01829,8.80184 -4.15625,-0.5 -32.92545,-27.40754 -42.7167,-60.85354 -22.9375,-78.15625 9.0917,-7.95336 17.90652,-8.8873 37.09375,-4 10.56701,2.69158 16.01784,3.20354 19.6875,1.84375 6.56146,-2.43138 7.6995,-7.78052 2.90625,-13.71875 -6.10061,-7.55786 -14.24901,-10.05333 -29.21875,-8.9375 -24.78173,1.84722 -42.64613,17.27004 -44.53125,38.40625 -1.04255,11.68894 -3.30914,7.9269 -4.15625,-6.875 -1.04628,-18.28138 3.92426,-38.51323 11.875,-48.375 9.81572,-12.17499 23.93164,-18.73096 43.125,-20.09375 16.72661,-1.18765 27.92695,-5.99909 29.4375,-12.59375 1.20483,-5.26004 -5.67513,-14.31558 -11.9375,-15.75 -2.06625,-0.4733 -4.37404,-0.74638 -6.78125,-0.78125 -0.65196,-0.01 -1.32906,-0.0217 -2,0 -10.06408,0.32474 -22.09139,4.11675 -31.96875,10.3125 -29.06796,18.23334 -43.11201,48.19549 -38.8125,82.96875 2.95012,23.85949 11.96416,44.60374 29.34375,65.375 -25.58215,-8.74572 -74.60456,-40.98558 -104.71875,-72.53125 -32.10599,-33.67839 -36.19084,-59.68613 -51.9375,-113.84375 -5.96809,-20.52612 -19.29255,-44.1097 -28.03125,-48.9375 -4.14251,-2.28857 -9.10713,-3.88194 -13.875,-3.9375 z"
         style="fill:#552200;stroke:none" />
      <path
         id="path2929"
         d="m -154.53238,788.33199 c -3.33739,0.0227 -5.95595,1.64579 -10.0625,6 -20.0117,21.21865 -9.24965,57.11236 21.15625,70.625 15.759,7.00344 27.73494,7.93638 45.031249,3.5625 25.1717,-6.36539 45.0264,-19.11913 64.25,-41.25 11.442901,-13.17346 6.6162,-4.28272 -6.9688,12.8125 -25.9302,32.63045 -63.352199,53.93764 -101.874949,58 -15.8312,1.66947 -42.3828,-1.49122 -62.125,-7.40625 -7.0947,-2.12567 -14.0091,-4.52962 -18.84375,-5.65625 -2.11127,1.45695 -4.28275,2.76111 -6.53125,3.875 0.12094,0.0892 0.21255,0.15406 0.34375,0.25 5.2876,3.86642 37.14505,15.4356 50.03125,17.3125 23.4447,3.4147 45.08744,1.48386 71.34375,-6.375 40.887699,-12.23823 70.054399,-35.92312 94.6875,-76.9375 0.8577,-1.42803 -1.1377,-3.06029 -5.5,-4.5 l -6.843701,-2.25 -14.3438,15.46875 c -12.3833,13.32941 -17.0113,16.79234 -33.5312,25.0625 -17.3526,8.68701 -20.3904,9.59375 -32.124999,9.59375 -10.21486,0 -14.02715,-0.8437 -18.00005,-3.96875 -6.3327,-4.98133 -6.5246,-10.87319 -0.4375,-13.1875 5.9215,-2.25134 7.4475,-4.85636 4.375,-7.40625 -3.5907,-2.98001 -11.7183,1.63012 -12.5,7.09375 -1.1597,8.10605 1.5149,13.78595 7.875,16.6875 l 6.15625,2.8125 -8.59375,-1.1875 c -10.9463,-1.50608 -21.66205,-8.40716 -24.78125,-15.9375 -3.4846,-8.41257 1.946,-17.27674 13.125,-21.40625 9.5466,-3.52649 12.95615,-7.8683 8.84375,-11.28125 -5.9,-4.89658 -22.32935,5.41192 -25.90625,16.25 -1.6443,4.98216 -1.69265,8.3428 -0.15625,12.75 3.3532,9.6189 0.92155,8.47203 -5.40625,-2.5625 -9.554,-16.66045 -7.36035,-28.58381 7.65625,-41.4375 9.2093,-7.88275 9.70615,-14.33229 1.15625,-15.3125 -0.51256,-0.0588 -1.02323,-0.097 -1.5,-0.0937 z"
         style="fill:#552200;stroke:none" />
      <path
         id="path2925"
         d="m -484.13851,710.87641 c 3.60611,9.45139 -1.30648,38.01504 -10.1864,59.2277 -0.7336,1.75249 -1.09632,0.58552 -0.84547,-2.72038 0.37524,-4.94544 -0.91899,-7.43372 -8.87808,-17.06904 -5.12447,-6.20382 -12.7024,-15.58425 -16.8388,-20.8463 l -7.52145,-9.56671 2.52483,-13.59143 c 1.38864,-7.47527 3.11054,-14.03097 3.82647,-14.56819 0.7159,-0.5372 5.07255,3.06756 9.68147,8.01056 7.52496,8.07045 10.46924,12.68478 15.59739,24.4438 0.86446,1.98228 1.25607,-0.46426 0.87028,-5.43661 -0.59302,-7.64304 -2.10066,-10.94898 -9.75187,-21.38371 l -9.05038,-12.34294 9.27531,4.99881 c 11.58999,6.24626 18.19256,12.7086 21.2967,20.84444 l -3e-5,2e-5 z"
         style="fill:#552200;stroke:none" />
      <path
         sodipodi:nodetypes="ccccc"
         id="path2921"
         d="m -220.31322,723.30081 c -36.82343,10.59433 -54.44043,35.14694 -58.25041,71.21868 3.21617,-1.69092 6.54825,-3.01964 9.96875,-4 4.37231,-20.44973 16.12832,-44.32383 61.78125,-33.46875 -12.20177,-10.38386 -12.32975,-29.20453 -13.49959,-33.74993 z"
         style="fill:#552200;stroke:none" />
      <path
         id="path2919"
         d="m -768.62871,836.793 c -1.46315,3.75186 -2.16297,11.51352 -1.5552,17.24813 l 1.10505,10.42653 2.25946,-4.55666 c 1.24268,-2.50615 4.70074,-5.88861 7.68454,-7.51658 7.84014,-4.27754 11.77545,-10.43353 11.04243,-17.27366 -0.81451,-7.60081 -2.59125,-8.05719 -8.02203,-2.06047 -2.39373,2.6432 -5.19874,5.2329 -6.23331,5.7549 -2.99734,1.51216 3.58369,-8.25311 6.80331,-10.09524 5.55694,-3.17968 1.0376,-5.00192 -4.67503,-1.88512 -3.65982,1.9968 -6.7157,5.61554 -8.40922,9.95817 z"
         style="fill:#008000;fill-opacity:1;stroke:none" />
      <path
         id="path2917"
         d="m -589.08629,810.51997 c -0.79992,17.50418 -1.58743,20.41641 -3.65486,13.51583 -1.10634,-3.69264 -4.88008,-7.2489 -13.33504,-12.56653 -6.48564,-4.07904 -13.0249,-8.76152 -14.5317,-10.40556 -2.96559,-3.23564 -4.87068,-21.89662 -2.46694,-24.1644 1.63942,-1.54665 18.77051,12.02601 21.01762,16.65188 1.29635,2.66843 1.47382,2.61006 1.77609,-0.58422 0.40426,-4.27166 -5.48375,-11.48502 -14.37282,-17.60835 -5.99269,-4.1281 -6.08897,-4.31094 -2.15158,-4.08687 2.26695,0.12902 7.87912,2.03514 12.47144,4.23581 11.89428,5.69984 16.14163,15.4527 15.24779,35.01241 z"
         style="fill:#008000;fill-opacity:1;stroke:none" />
      <path
         sodipodi:nodetypes="csccc"
         id="path2913"
         d="m -713.94343,509.91444 c 6.00704,0.83414 18.68826,5.16437 16.21995,13.31476 -2.87888,9.50615 -13.94486,1.31412 -19.78815,-7.60113 -46.85178,-8.21696 -54.70128,47.191 -9.41353,73.1178 -50.92354,-22.69742 -48.32748,-91.57527 12.98173,-78.83143 z"
         style="fill:#502d16;stroke:none" />
      <path
         id="path2909"
         d="m -701.83956,782.03026 c -6.26552,-3.82063 -11.10056,-13.43199 -13.16329,-26.16663 -0.66896,-4.12997 -1.64413,-9.56791 -2.16704,-12.08433 -0.89761,-4.31959 -0.67909,-4.25246 3.90965,1.20097 3.03259,3.60402 7.98461,6.56295 13.16797,7.86813 4.56915,1.15052 10.58662,3.88458 13.37214,6.07568 5.16604,4.0636 10.72813,17.97546 8.19824,20.50537 -0.76867,0.76867 -6.5518,-1.30546 -12.8514,-4.60919 -10.13527,-5.31524 -11.14263,-5.5381 -8.75076,-1.93573 1.48668,2.23905 6.4064,6.0294 10.93271,8.42298 l 8.22968,4.35193 -7.47492,-0.008 c -4.11119,-0.003 -10.14253,-1.63383 -13.40298,-3.62203 l 0,5e-4 z"
         style="fill:#552200;stroke:none" />
      <path
         id="path2907"
         d="m -706.41802,845.26143 c -2.32919,-15.60676 -10.82936,-24.14715 -24.3244,-24.43953 l -6.69421,-0.14513 8.11162,4.19527 c 4.4614,2.30739 8.92813,5.78791 9.92604,7.73448 1.46506,2.85775 -0.28677,2.38438 -9.09902,-2.45873 -12.23802,-6.72589 -14.01512,-5.57452 -10.22648,6.62556 2.34149,7.54006 7.34692,11.48967 18.71481,14.76728 4.41039,1.27161 9.66534,4.01774 11.6777,6.10251 4.24173,4.3944 4.33124,3.81546 1.91393,-12.38182 l -10e-6,1.1e-4 z"
         style="fill:#552200;stroke:none" />
      <path
         sodipodi:nodetypes="csccssssssssccsc"
         id="path2905"
         d="m -373.09488,717.48824 c -9.59565,-0.0128 -18.4923,2.06768 -25.03125,6.34375 -19.96138,13.05344 -18.52141,35.51434 2.375,37.03125 10.14251,0.16785 20.6,-7.33123 13.875,-18.0625 -5.93941,-8.31499 -16.78113,-4.45439 -13.3125,4.96875 1.12591,3.05874 5.38686,3.19505 6.0625,0.78125 1.08367,-3.87156 9.09628,-1.88612 5.1875,4.46875 -6.38015,10.37282 -25.31647,4.72628 -24.40625,-7.8125 0.7189,-9.90292 9.64101,-18.12103 23.34375,-20.90625 10.91627,-2.21879 15.4512,-1.74554 28.40625,3.0625 12.5081,4.64218 18.11081,9.0825 29.6875,23.5625 7.84593,9.8136 18.48737,25.00588 23.18791,33.8592 4.37903,8.24777 4.80624,10.19739 10.91694,19.97043 1.91866,-1.57087 3.84061,-3.14305 5.77015,-4.70463 -11.2032,-29.6564 -20.99641,-45.75278 -48.03098,-68.71786 -9.8598,-8.37562 -25.69426,-13.82816 -38.03152,-13.84464 z"
         style="fill:#502d16;stroke:none" />
      <path
         sodipodi:nodetypes="csssssssscssssc"
         id="path2903"
         d="m -283.96863,634.22375 c 4.12614,4.90125 3.20747,10.86201 0.2287,14.1229 -2.30129,2.51922 -6.05446,5.23479 -12.51027,5.35016 -14.95646,0.26729 -32.27443,-17.39567 -33.97641,-38.91108 -2.90891,-36.77276 22.18305,-80.75045 63.3525,-103.15768 15.88282,-8.64451 14.10502,-4.27691 -2.98404,7.33127 -20.15206,13.68874 -35.57849,30.09626 -43.08534,45.82546 -7.47015,15.65227 -9.66095,25.70584 -9.71801,44.59584 -0.038,12.56843 0.79009,17.06859 4.40013,23.91334 5.61507,10.64632 14.8201,17.04025 24.53203,17.04025 15.15042,-0.32468 10.20239,-19.49498 1.73163,-14.51676 -2.46754,1.45016 0.46874,0.78725 2.71174,2.86961 2.24192,2.08135 -1.03111,4.39503 -3.59553,3.99488 -4.50719,-0.7033 -4.85646,-5.24079 -1.84896,-8.70543 2.26127,-2.60498 8.45939,-2.50485 10.76183,0.24724 z"
         style="fill:#552200;stroke:none" />
      <path
         id="path2901"
         d="m -570.87012,512.02875 c -6.12182,-2.66486 -47.42063,-10.57424 -48.62575,-9.31259 -0.24615,0.2577 1.96227,1.56517 4.90759,2.90549 6.95996,3.16725 12.62847,12.46879 18.03173,29.58877 2.26332,7.17112 5.89007,14.73387 8.05944,16.80604 4.90924,4.68932 18.77383,9.28275 26.71939,8.85232 l 5.98483,-0.32421 -6.05005,-12.94255 c -3.3275,-7.11841 -8.68967,-15.50016 -11.9159,-18.62611 -4.80559,-4.65616 -5.15617,-5.51305 -1.93957,-4.74027 6.79443,1.6323 15.43135,11.38391 20.97244,23.67916 2.93929,6.52205 5.62837,11.18496 5.97568,10.36201 1.2451,-2.94988 -1.94494,-23.9013 -4.55359,-29.9073 -3.29078,-7.5765 -8.44319,-12.36945 -17.56624,-16.34076 z"
         style="fill:#008000;fill-opacity:1;stroke:none" />
      <path
         id="path2899"
         d="m -405.16558,584.78634 c -6.26168,-4.17064 -11.43824,-12.41296 -14.10174,-22.4533 -1.05151,-3.96379 0.14581,-3.25267 6.99245,4.15317 7.97602,8.62739 16.24204,14.3301 18.09111,12.48101 0.4914,-0.49137 -1.41596,-2.71 -4.23857,-4.93025 -5.33111,-4.19346 -15.96708,-17.32911 -16.06002,-19.83448 -0.094,-2.53385 19.08428,-1.52953 24.52576,1.28437 2.89205,1.49554 7.58154,6.87605 10.42109,11.95669 7.3164,13.09076 9.49584,15.51046 16.8425,18.69899 6.2549,2.7147 5.68622,2.8266 -14.7331,2.89859 -18.94393,0.0667 -21.94155,-0.393 -27.73948,-4.25479 z"
         style="fill:#008000;fill-opacity:1;stroke:none" />
      <path
         inkscape:transform-center-y="-32.33592"
         inkscape:transform-center-x="-7.9673597"
         id="path2897"
         d="m -362.50999,428.0702 c -8.06743,-12.52637 -20.09411,-18.73927 -57.33341,-29.61791 l -15.36514,-4.48862 7.0837,4.86487 c 9.01196,6.18915 12.64409,12.99623 16.04576,30.07174 4.37087,21.94065 8.35551,30.03666 18.14551,36.86814 4.65666,3.24943 12.94366,7.00561 18.41558,8.34704 l 9.94892,2.43889 -0.42799,-3.68312 c -0.69283,-5.9555 -10.22508,-31.06654 -13.94815,-36.74405 -1.8853,-2.875 -5.29757,-6.92547 -7.58282,-9.00104 l -4.15498,-3.77377 6.0516,3.2443 c 11.87192,6.36465 20.41551,19.73335 27.20025,42.56201 l 2.26179,7.6103 0.53276,-7.05214 c 1.11333,-14.73781 -2.10591,-34.24502 -6.87286,-41.64676 l -10e-6,0 z"
         style="fill:#552200;stroke:none" />
      <path
         sodipodi:nodetypes="ccccsccssssssssssssssssscccssscccc"
         id="path2895"
         d="m -209.00559,180.23823 c -1.9501,0.0406 -3.9006,0.13281 -5.8437,0.28125 -26.7607,4.06847 -50.44946,14.27922 -71.62478,31.28125 -70.46601,58.37358 -59.50217,144.93068 -5.03147,207.0625 5.42456,4.20706 10.53656,7.65625 11.34375,7.65625 3.45859,0 1.02842,-8.22898 -3.53125,-12 -25.4321,-23.64118 -40.74566,-53.27845 -43.84375,-85.375 6.80806,-34.00107 26.42344,-69.00539 42.25,-70.09375 7.47257,-0.51387 10.63009,-0.70783 13.21875,3.75 1.67471,2.88399 1.45087,4.40063 -1.21875,7.65625 -4.34072,5.29358 -2.18758,10.24731 3.34375,7.6875 5.4285,-2.5122 6.15053,-12.06343 1.375,-18.0625 -3.8189,-4.79732 -4.45968,-5.02849 -12.28125,-4.125 -4.53489,0.52383 -8.16272,0.65908 -8.0625,0.28125 0.10023,-0.37785 4.50573,-2.23895 9.78125,-4.125 17.21279,-6.15371 32.32615,-1.44442 33.93755,10.5625 0.6991,5.20838 -0.1,7.61918 -4.8125,14.8125 -8.16353,12.46085 -6.4532,18.61044 3.5313,12.8125 3.3078,-1.92091 5.3286,-5.17761 6.9062,-11.125 2.9444,-11.1001 0.7196,-20.11447 -6.25,-25.46875 -7.5933,-5.83339 -6.7445,-6.88925 2.375,-2.90625 18.2397,7.96621 24.532,18.46516 21.2188,35.46875 -3.1652,16.2437 -3.0198,19.56891 0.8437,20.59375 11.6264,3.08405 16.4445,-18.21317 8.0625,-35.625 -6.0926,-12.65607 -14.7367,-19.48801 -29.7812,-23.53125 -54.0289,-8.13988 -68.39551,23.53552 -84.96885,65.625 -0.48278,-21.13714 5.54044,-41.45972 14.90625,-60.09402 26.12671,-45.48966 80.6711,-72.04701 119.125,-66.06223 26.5302,4.129 46.1223,22.42387 52.5791,43.63707 5.6578,18.58795 3.0398,31.58883 -20.4977,40.30892 -15.5465,5.7596 -28.1614,27.62714 -11.4378,34.90777 18.7574,3.72459 31.0583,-7.4484 40.2464,-22.9364 29.57381,-55.82247 -15.4058,-104.11245 -75.8587,-102.85486 l -1e-4,0 z"
         style="fill:#552200;stroke:none" />
      <path
         id="path2889"
         d="m -350.50746,276.15694 c -0.82482,-0.70719 -4.14766,-4.37243 -7.38408,-8.14498 -6.83499,-7.96747 -17.5257,-13.099 -28.21607,-13.54381 -6.19337,-0.25767 -41.95552,9.01618 -42.17858,10.93781 -0.0511,0.43984 2.1925,0.56832 4.98567,0.28552 6.12513,-0.62019 14.29007,3.96366 26.45388,14.85131 12.85272,11.50428 18.30268,14.8418 25.72991,15.75685 7.69452,0.94797 23.96148,-3.56504 22.17668,-6.1526 -2.57726,-3.73678 -23.34032,-17.39512 -30.36668,-19.97604 -8.74815,-3.21337 -7.74988,-4.713 2.08207,-3.12766 4.45761,0.71875 11.35687,4.14578 19.72923,9.80007 7.08098,4.78212 13.3138,8.85119 13.85069,9.04233 1.15127,0.40989 -4.68159,-7.85897 -6.86278,-9.7288 l 8e-5,-3e-5 z"
         style="fill:#008000;fill-opacity:1;stroke:none" />
      <path
         style="fill:#502d16;stroke:none"
         d="m -660.69497,559.2783 c 5.01018,-0.84406 11.62441,-4.00375 16.37333,3.47874 3.35649,5.28853 -9.98458,6.78549 -16.94234,1.39378 -39.51695,5.27146 -32.34391,44.63087 10.88414,40.87432 -47.3019,12.29234 -62.53828,-40.37536 -10.31513,-45.74684 z"
         id="path2955"
         sodipodi:nodetypes="csccc" />
      <g
         style="fill:#502d16"
         transform="matrix(1.9266759,0,0,1.9266759,-1533.4879,-630.47453)"
         id="g2961">
        <path
           id="path2963"
           d="m 539.34961,570.80108 c -6.93415,0 -12.55869,5.62452 -12.55869,12.55867 0,6.93415 5.62454,12.55868 12.55869,12.55868 6.93415,0 12.55867,-5.62453 12.55867,-12.55868 0,-6.93415 -5.62452,-12.55867 -12.55867,-12.55867 z m 0,2.92603 c 5.31619,0 9.63263,4.31645 9.63263,9.63264 0,5.31619 -4.31644,9.63264 -9.63263,9.63264 -5.31619,0 -9.63264,-4.31645 -9.63264,-9.63264 0,-5.31619 4.31645,-9.63264 9.63264,-9.63264 z"
           style="fill:#502d16;stroke:none" />
        <path
           transform="matrix(0.12939265,0,0,0.12939265,511.73456,520.74816)"
           d="m 237.38585,483.89883 c 0,13.24994 -10.74119,23.99113 -23.99112,23.99113 -13.24993,0 -23.99112,-10.74119 -23.99112,-23.99113 0,-13.24993 10.74119,-23.99112 23.99112,-23.99112 13.24993,0 23.99112,10.74119 23.99112,23.99112 z"
           sodipodi:ry="23.991123"
           sodipodi:rx="23.991123"
           sodipodi:cy="483.89883"
           sodipodi:cx="213.39473"
           id="path2965"
           style="fill:#502d16;stroke:none"
           sodipodi:type="arc" />
      </g>
      <path
         style="fill:#008000;fill-opacity:1;stroke:none"
         d="m -874.20695,602.0942 c -0.66639,0.43099 -3.97223,1.8805 -7.34628,3.22119 -7.12575,2.8314 -12.69387,9.83237 -14.69599,18.47769 -1.1599,5.0086 0.33059,37.70592 1.75791,38.56386 0.32672,0.19637 0.77363,-1.60564 0.99317,-4.0045 0.48136,-5.26044 5.23967,-10.37415 15.41656,-16.56803 10.75327,-6.54473 14.14081,-9.86053 15.9929,-15.65427 1.91872,-6.00229 1.01658,-20.97853 -1.22995,-20.4171 -3.24423,0.81057 -16.86747,13.112 -19.92465,17.99112 -3.80635,6.07481 -4.79198,4.7267 -2.05567,-2.81165 1.24059,-3.41777 4.92177,-7.89535 10.52678,-12.80419 4.7405,-4.15168 8.80645,-7.8553 9.03544,-8.23025 0.49105,-0.80403 -6.70809,1.09657 -8.47021,2.23622 l -10e-6,-9e-5 z"
         id="path2967" />
      <path
         style="fill:#552200;stroke:none"
         d="m -756.71714,647.15773 c 3.24257,7.93826 -1.17479,31.92894 -9.15949,49.74553 -0.65964,1.47191 -0.98581,0.49177 -0.76024,-2.28485 0.33741,-4.1537 -0.82635,-6.24362 -7.98306,-14.33634 -4.60786,-5.21061 -11.42185,-13.08927 -15.14122,-17.50887 l -6.7632,-8.03512 2.27026,-11.41547 c 1.24868,-6.27851 2.79698,-11.78465 3.44072,-12.23587 0.64375,-0.45119 4.5612,2.57646 8.70548,6.7281 6.76635,6.77838 9.41381,10.65398 14.02498,20.53041 0.77731,1.66492 1.12944,-0.38993 0.78254,-4.56622 -0.53324,-6.41941 -1.88889,-9.19609 -8.76876,-17.96025 l -8.13799,-10.36687 8.34025,4.19852 c 10.42157,5.24625 16.35851,10.674 19.14973,17.5073 l -3e-5,2e-5 z"
         id="path2986" />
      <path
         inkscape:transform-center-y="-49.582976"
         inkscape:transform-center-x="112.51522"
         style="fill:#552200;stroke:none"
         d="m -338.23811,812.10863 c -7.68611,3.43416 -31.64724,0.67554 -49.68423,-5.72008 -1.49012,-0.52836 -0.53728,-0.8838 2.22121,-0.82852 4.12654,0.0826 6.1341,-1.10796 13.77137,-8.16756 4.91737,-4.54533 12.36051,-11.2764 16.54111,-14.9571 l 7.60055,-6.69275 11.4101,1.46823 c 6.27553,0.80752 11.80243,1.93454 12.28197,2.50451 0.47952,0.56998 -2.31383,4.3569 -6.20747,8.41546 -6.35712,6.62635 -10.05478,9.28653 -19.58778,14.09225 -1.60703,0.81013 0.44394,1.02218 4.5576,0.47126 6.32313,-0.84681 9.00018,-2.25267 17.31596,-9.09346 l 9.83648,-8.09176 -3.72383,7.93844 c -4.65309,9.91948 -9.71677,15.70493 -16.33304,18.66108 l -10e-6,-3e-5 z"
         id="path3006" />
      <path
         inkscape:transform-center-y="-0.62130264"
         id="path3008"
         d="m -343.57628,685.70991 c 5.72849,-4.33307 26.17677,-6.64899 42.4002,-4.80209 1.34028,0.15255 0.61662,0.63129 -1.68701,1.11596 -3.44608,0.72509 -4.88585,2.1009 -9.87639,9.43822 -3.21324,4.72418 -8.10558,11.75106 -10.87269,15.6148 l -5.0306,7.02531 -9.76703,0.97431 c -5.37185,0.53587 -10.18287,0.66214 -10.69113,0.28057 -0.50823,-0.38154 1.08533,-4.06671 3.54123,-8.18934 4.00974,-6.73096 6.57173,-9.65349 13.57162,-15.48193 1.18,-0.98251 -0.56563,-0.76426 -3.87916,0.48491 -5.0932,1.92017 -7.04808,3.60375 -12.64469,10.88968 l -6.62009,8.61834 1.56844,-7.31509 c 1.95984,-9.1406 5.05615,-14.92374 9.9873,-18.65369 l 2e-5,3e-5 z"
         style="fill:#008000;fill-opacity:1;stroke:none"
         inkscape:transform-center-x="-7.1632738" />
      <path
         style="fill:#552200;stroke:none"
         d="m -382.16496,688.17114 c 0.95424,-10.22623 1.49615,-11.90943 2.51505,-7.81186 0.54526,2.19271 2.65601,4.37959 7.45864,7.72769 3.68403,2.56824 7.38268,5.49129 8.21925,6.49569 1.64649,1.97673 2.24388,12.95534 0.77358,14.21635 -1.00279,0.86006 -10.65602,-7.56209 -11.84326,-10.33285 -0.68492,-1.59829 -0.79041,-1.56908 -1.0561,0.29277 -0.35526,2.48977 2.89185,6.87651 7.92628,10.7084 3.39405,2.58327 3.44533,2.69301 1.14629,2.45251 -1.3237,-0.13844 -4.55663,-1.41026 -7.18427,-2.82619 -6.8057,-3.66733 -9.02174,-9.49541 -7.95546,-20.92251 z"
         id="path3010" />
      <path
         inkscape:transform-center-y="-21.321761"
         style="fill:#552200;stroke:none"
         d="m -863.65635,448.57904 c -5.04252,-10.42971 -13.39572,-17.18474 -39.82123,-32.20244 l -10.9033,-6.19643 4.83904,4.82949 c 6.1565,6.1439 8.34836,11.66346 9.68337,24.38354 1.7154,16.34425 4.07791,22.84277 10.7586,29.5934 3.17761,3.21104 8.96871,7.49518 12.86889,9.52048 l 7.09125,3.68226 -0.065,-2.68337 c -0.1057,-4.33915 -5.37213,-23.93809 -7.70616,-28.67842 -1.18193,-2.40042 -3.39845,-5.93133 -4.92564,-7.84649 l -2.7767,-3.48207 4.19525,3.48234 c 8.23016,6.83162 13.56339,17.94958 16.97944,35.39633 l 1.13879,5.81613 0.86158,-4.87138 c 1.80054,-10.18039 0.76168,-24.58044 -2.21789,-30.74326 l 0,0 z"
         id="path3036"
         inkscape:transform-center-x="-8.578818" />
      <path
         inkscape:transform-center-x="-6.4992659"
         style="fill:#552200;stroke:none"
         d="m -612.4742,334.14825 c 5.59567,-2.78178 23.58006,-1.71887 37.29124,2.20402 1.13275,0.32406 0.43624,0.61811 -1.62366,0.6854 -3.0815,0.10074 -4.53129,1.03956 -9.9451,6.44072 -3.48577,3.47755 -8.76794,8.63361 -11.73881,11.45739 l -5.40117,5.13447 -8.5702,-0.61793 c -4.71361,-0.33987 -8.88161,-0.93984 -9.26217,-1.33331 -0.38055,-0.39346 1.55123,-3.24005 4.29289,-6.32586 4.47626,-5.03814 7.12784,-7.10528 14.04616,-10.95052 1.16625,-0.64823 -0.37214,-0.72179 -3.41863,-0.16358 -4.68277,0.85811 -6.62331,1.97867 -12.55203,7.24797 l -7.0129,6.23295 2.45935,-5.88441 c 3.07306,-7.35289 6.61821,-11.73275 11.43505,-14.12734 l -2e-5,3e-5 z"
         id="path3046"
         inkscape:transform-center-y="0.19337578" />
      <path
         id="path3048"
         d="m -594.07712,414.0065 c -0.53633,0.58496 -3.37045,2.82048 -6.29796,4.96784 -6.18274,4.53507 -9.80778,12.7129 -9.56759,21.58377 0.13923,5.13927 9.81802,36.40676 11.41544,36.87748 0.36564,0.1078 0.34423,-1.74873 -0.0476,-4.12555 -0.85926,-5.21204 2.45747,-11.35947 10.74595,-19.91718 8.7579,-9.04242 11.20096,-13.10462 11.53388,-19.17808 0.34489,-6.29204 -4.30067,-20.55812 -6.33332,-19.44889 -2.93544,1.60165 -13.02066,16.93809 -14.75021,22.42997 -2.15336,6.83775 -3.4468,5.78138 -2.69764,-2.20316 0.33964,-3.62006 2.77423,-8.88054 6.96197,-15.04298 3.54183,-5.21194 6.54372,-9.82034 6.67089,-10.24087 0.27267,-0.9018 -6.21556,2.75097 -7.63379,4.29775 l -3e-5,-10e-5 z"
         style="fill:#008000;fill-opacity:1;stroke:none" />
      <path
         style="fill:#552200;stroke:none"
         d="m -632.70765,377.16157 c -0.71279,0.20642 -3.98205,0.59216 -7.26489,0.85751 -6.93324,0.56038 -14.20723,5.43195 -19.19829,12.85748 -2.89144,4.30193 -14.34627,35.00739 -13.50993,36.21464 0.19143,0.27633 1.256,-1.26288 2.36568,-3.42049 2.43347,-4.73137 8.31263,-8.08977 19.04806,-10.88088 11.34345,-2.94925 15.40307,-5.03947 19.1658,-9.86815 3.89817,-5.00248 8.96504,-19.12989 6.90761,-19.25988 -2.97106,-0.18793 -18.89651,7.26128 -23.29161,10.89451 -5.47214,4.52362 -5.75672,2.99028 -0.59357,-3.19794 2.34091,-2.80566 7.09137,-5.88659 13.58452,-8.81036 5.49165,-2.47277 10.25715,-4.72584 10.59004,-5.00675 0.71381,-0.6025 -5.91864,-0.92509 -7.80353,-0.37961 l 3e-5,-8e-5 z"
         id="path3050" />
      <path
         sodipodi:type="arc"
         style="fill:#552200;stroke:none"
         id="path3775"
         sodipodi:cx="213.39473"
         sodipodi:cy="483.89883"
         sodipodi:rx="23.991123"
         sodipodi:ry="23.991123"
         d="m 237.38585,483.89883 c 0,13.24994 -10.74119,23.99113 -23.99112,23.99113 -13.24993,0 -23.99112,-10.74119 -23.99112,-23.99113 0,-13.24993 10.74119,-23.99112 23.99112,-23.99112 13.24993,0 23.99112,10.74119 23.99112,23.99112 z"
         transform="matrix(0.13374238,0,0,0.13374238,-74.364481,328.25372)" />
      <path
         id="path3813"
         d="m 212.5,540.18119 c -29.13,0 -52.75,23.62 -52.75,52.75 0,29.13 23.62,52.75 52.75,52.75 29.13,0 52.75,-23.62 52.75,-52.75 0,-29.13 -23.62,-52.75 -52.75,-52.75 z m 0,23.09375 c 16.38604,0 29.65625,13.27021 29.65625,29.65625 0,16.38604 -13.27021,29.65625 -29.65625,29.65625 -16.38604,0 -29.6875,-13.27021 -29.6875,-29.65625 0,-16.38604 13.30146,-29.65625 29.6875,-29.65625 z"
         style="fill:#008000;fill-opacity:1;stroke:none" />
      <path
         inkscape:transform-center-y="-25.508281"
         style="fill:#552200;stroke:none"
         d="m 475.02235,741.87502 c 7.26707,-7.96121 15.72703,-10.22347 40.33019,-10.78455 l 10.15141,-0.23154 -5.21253,2.26176 c -6.63143,2.87746 -10.12561,7.36172 -15.43628,19.81022 -6.82377,15.99533 -10.77674,21.39914 -18.00127,24.60827 -3.43638,1.52642 -9.16575,2.68067 -12.73196,2.56494 l -6.48399,-0.21045 0.96051,-2.74935 c 1.55358,-4.44543 12.10406,-21.80021 15.4381,-25.39461 1.68829,-1.82013 4.52436,-4.22556 6.30236,-5.34539 l 3.23273,-2.03607 -4.27939,1.22937 c -8.39523,2.41177 -16.11086,10.92226 -24.56424,27.09491 l -2.81808,5.39142 1.02096,-5.54837 c 2.13365,-11.59514 7.79713,-25.95654 12.09118,-30.66076 l 0,0 z"
         id="path3948"
         inkscape:transform-center-x="-1.5668179" />
      <path
         style="fill:#008000;stroke:none"
         d="m 222.71457,708.47828 c -30.11015,0 -54.52272,24.41256 -54.52272,54.52274 0,30.11018 24.41257,54.52275 54.52272,54.52275 30.1102,0 54.52274,-24.41257 54.52274,-54.52275 0,-30.11018 -24.41254,-54.52274 -54.52274,-54.52274 z m 0,16.24979 c 21.13502,0 38.27295,17.13793 38.27295,38.27295 0,21.13502 -17.13793,38.24051 -38.27295,38.24051 -21.13501,0 -38.27294,-17.10549 -38.27294,-38.24051 0,-21.13502 17.13793,-38.27295 38.27294,-38.27295 z"
         id="path3956" />
      <path
         style="fill:#552200;fill-opacity:1;stroke:none"
         d="m 222.71457,729.95006 c -18.23982,0 -33.05097,14.81114 -33.05097,33.05096 0,18.23982 14.81115,33.01853 33.05097,33.01853 18.23982,0 33.01853,-14.77871 33.01853,-33.01853 0,-18.23982 -14.77871,-33.05096 -33.01853,-33.05096 z m 0,15.21188 c 9.84374,0 17.80666,7.99537 17.80666,17.83908 0,9.84371 -7.96292,17.80666 -17.80666,17.80666 -9.84368,0 -17.8391,-7.96295 -17.8391,-17.80666 0,-9.84371 7.99542,-17.83908 17.8391,-17.83908 z"
         id="path3958" />
      <path
         inkscape:transform-center-x="-33.263591"
         id="path3960"
         d="m 452.0576,812.19294 c -12.57178,4.53382 -17.76329,12.45129 -24.74914,37.7436 l -2.88253,10.43557 4.36893,-4.55106 c 5.55765,-5.79025 12.48738,-7.7228 30.6126,-8.53786 23.28949,-1.04733 31.57463,-3.10929 37.72979,-9.38916 2.92789,-2.98701 5.93428,-8.49143 6.68132,-12.2316 l 1.358,-6.80069 -3.94925,-0.0402 c -6.38579,-0.0642 -32.45143,4.33409 -38.14082,6.43602 -2.88098,1.06434 -6.84167,3.09801 -8.80144,4.5191 l -3.56304,2.58405 2.74066,-3.97296 c 5.37676,-7.7938 18.80253,-12.58562 42.74364,-15.25542 l 7.9811,-0.89003 -7.73766,-1.03198 c -16.17048,-2.15662 -36.96361,-1.69649 -44.39218,0.98247 l 0,0 z"
         style="fill:#552200;stroke:none"
         inkscape:transform-center-y="-1.7501316" />
      <g
         id="g3962"
         transform="matrix(1.2190588,0,0,1.2190588,528.38182,-135.97733)"
         style="fill:#552200;fill-opacity:1">
        <path
           id="path3964"
           d="m 297.22537,726.89421 c -8.64947,0 -15.65293,7.00346 -15.65293,15.65293 0,8.64946 7.00346,15.69019 15.65293,15.69019 8.64947,0 15.65293,-7.04073 15.65293,-15.69019 0,-8.64947 -7.00346,-15.65293 -15.65293,-15.65293 z m 0,3.01878 c 6.98611,0 12.63415,5.64804 12.63415,12.63415 0,6.9861 -5.64804,12.67141 -12.63415,12.67141 -6.98611,0 -12.63415,-5.68531 -12.63415,-12.67141 0,-6.98611 5.64804,-12.63415 12.63415,-12.63415 z"
           style="fill:#552200;fill-opacity:1;stroke:none" />
        <path
           transform="matrix(0.35483195,0,0,0.35483195,289.74439,574.89287)"
           d="m 36.239223,472.53461 c 0,8.36837 -6.78391,15.15229 -15.152288,15.15229 -8.368378,0 -15.1522884,-6.78392 -15.1522884,-15.15229 0,-8.36838 6.7839104,-15.15229 15.1522884,-15.15229 8.368378,0 15.152288,6.78391 15.152288,15.15229 z"
           sodipodi:ry="15.152288"
           sodipodi:rx="15.152288"
           sodipodi:cy="472.53461"
           sodipodi:cx="21.086935"
           id="path3966"
           style="fill:#552200;fill-opacity:1;stroke:none"
           sodipodi:type="arc" />
      </g>
      <path
         sodipodi:nodetypes="ccccsccccccccc"
         id="path3982"
         d="m 701.60257,809.89034 c -4.86626,4.41126 -10.74443,22.76805 -12.18857,38.06343 1.12518,-2.28176 7.15864,-6.66341 11.40245,-8.54567 8.29038,-2.75953 11.05132,-3.85418 17.82037,-7.27173 2.04719,-0.91822 5.3598,-4.16975 5.97163,-6.16816 0.56075,-1.83154 1.68224,-5.49464 1.68224,-5.49464 1.48083,-4.8368 2.49804,-9.23882 2.26044,-9.78225 -7.62002,-0.14315 -14.53025,4.33051 -20.19951,9.01335 -0.0639,-5.12889 4.08157,-8.17564 9.34303,-10.91217 l 8.779,-4.38112 -6.68795,-0.009 c -8.35693,-0.0109 -13.9942,1.69041 -18.18313,5.48767 l 3e-5,10e-6 -3e-5,2.8e-4 z"
         style="fill:#552200;stroke:none"
         inkscape:transform-center-x="23.823253"
         inkscape:transform-center-y="19.141465" />
      <path
         inkscape:transform-center-x="-28.941839"
         id="path3984"
         d="m 781.49427,807.28817 c 10.29872,5.96314 14.64141,14.40496 20.70237,40.24366 l 2.50082,10.66119 -3.623,-5.01554 c -4.60921,-6.38083 -10.27743,-9.10755 -25.04062,-12.04588 -18.9695,-3.7755 -25.74299,-6.78943 -30.84557,-13.72504 -2.42704,-3.29895 -4.95567,-9.09692 -5.61913,-12.88441 l -1.20622,-6.88631 3.21353,0.42485 c 5.19609,0.68753 26.4747,8.10404 31.13619,10.8523 2.3605,1.39168 5.614,3.86907 7.23001,5.5053 l 2.93822,2.97497 -2.28953,-4.25201 c -4.49154,-8.34149 -15.48912,-14.66035 -35.01305,-20.11729 l -6.50864,-1.81917 6.28196,-0.11057 c 13.12819,-0.23106 30.05736,2.67001 36.14281,6.19358 l 0,0 z"
         style="fill:#008000;stroke:none"
         inkscape:transform-center-y="-4.0864798" />
      <g
         style="fill:#552200"
         transform="matrix(1.6041108,0,0,1.6041108,-198.26979,-164.61469)"
         id="g3994">
        <path
           style="fill:#552200;stroke:none"
           d="m 539.34961,570.80108 c -6.93415,0 -12.55869,5.62452 -12.55869,12.55867 0,6.93415 5.62454,12.55868 12.55869,12.55868 6.93415,0 12.55867,-5.62453 12.55867,-12.55868 0,-6.93415 -5.62452,-12.55867 -12.55867,-12.55867 z m 0,2.92603 c 5.31619,0 9.63263,4.31645 9.63263,9.63264 0,5.31619 -4.31644,9.63264 -9.63263,9.63264 -5.31619,0 -9.63264,-4.31645 -9.63264,-9.63264 0,-5.31619 4.31645,-9.63264 9.63264,-9.63264 z"
           id="path3996" />
        <path
           sodipodi:type="arc"
           style="fill:#552200;stroke:none"
           id="path3998"
           sodipodi:cx="213.39473"
           sodipodi:cy="483.89883"
           sodipodi:rx="23.991123"
           sodipodi:ry="23.991123"
           d="m 237.38585,483.89883 c 0,13.24994 -10.74119,23.99113 -23.99112,23.99113 -13.24993,0 -23.99112,-10.74119 -23.99112,-23.99113 0,-13.24993 10.74119,-23.99112 23.99112,-23.99112 13.24993,0 23.99112,10.74119 23.99112,23.99112 z"
           transform="matrix(0.09312219,0,0,0.09312219,519.47448,538.29939)" />
      </g>
      <g
         id="g4012"
         transform="matrix(1.8637103,0,0,1.8637103,-502.96131,-996.94662)"
         style="fill:#008000">
        <path
           id="path4014"
           d="m 297.22537,726.89421 c -8.64947,0 -15.65293,7.00346 -15.65293,15.65293 0,8.64946 7.00346,15.69019 15.65293,15.69019 8.64947,0 15.65293,-7.04073 15.65293,-15.69019 0,-8.64947 -7.00346,-15.65293 -15.65293,-15.65293 z m 0,3.01878 c 6.98611,0 12.63415,5.64804 12.63415,12.63415 0,6.9861 -5.64804,12.67141 -12.63415,12.67141 -6.98611,0 -12.63415,-5.68531 -12.63415,-12.67141 0,-6.98611 5.64804,-12.63415 12.63415,-12.63415 z"
           style="fill:#008000;stroke:none" />
        <path
           transform="matrix(0.298151,0,0,0.298151,290.93962,601.67658)"
           d="m 36.239223,472.53461 c 0,8.36837 -6.78391,15.15229 -15.152288,15.15229 -8.368378,0 -15.1522884,-6.78392 -15.1522884,-15.15229 0,-8.36838 6.7839104,-15.15229 15.1522884,-15.15229 8.368378,0 15.152288,6.78391 15.152288,15.15229 z"
           sodipodi:ry="15.152288"
           sodipodi:rx="15.152288"
           sodipodi:cy="472.53461"
           sodipodi:cx="21.086935"
           id="path4016"
           style="fill:#552200;fill-opacity:1;stroke:none"
           sodipodi:type="arc" />
      </g>
      <g
         style="fill:#008000"
         transform="matrix(-2.2566658,1.9987786,-1.9987786,-2.2566658,3594.5267,553.7517)"
         id="g4018">
        <path
           style="fill:#552200;fill-opacity:1;stroke:none"
           d="m 816.61292,731.27767 c -7.56049,0 -13.69306,6.13256 -13.69306,13.69305 0,7.56049 6.13257,13.69306 13.69306,13.69306 7.56049,0 13.69305,-6.13257 13.69305,-13.69306 0,-7.56049 -6.13256,-13.69305 -13.69305,-13.69305 z m 0,3.19034 c 5.79638,0 10.50271,4.70633 10.50271,10.50271 0,5.79638 -4.70633,10.50272 -10.50271,10.50272 -5.79638,0 -10.50271,-4.70634 -10.50271,-10.50272 0,-5.79638 4.70633,-10.50271 10.50271,-10.50271 z"
           id="path4020" />
        <path
           sodipodi:type="arc"
           style="fill:#008000;fill-opacity:1;stroke:none"
           id="path4022"
           sodipodi:cx="213.39473"
           sodipodi:cy="483.89883"
           sodipodi:rx="23.991123"
           sodipodi:ry="23.991123"
           d="m 237.38585,483.89883 c 0,13.24994 -10.74119,23.99113 -23.99112,23.99113 -13.24993,0 -23.99112,-10.74119 -23.99112,-23.99113 0,-13.24993 10.74119,-23.99112 23.99112,-23.99112 13.24993,0 23.99112,10.74119 23.99112,23.99112 z"
           transform="matrix(0.24561439,0,0,0.24561439,764.19645,626.11969)" />
      </g>
      <path
         inkscape:transform-center-x="-7.4373495"
         style="fill:#008000;fill-opacity:1;stroke:none"
         d="m 200.44075,428.76621 c 6.94245,-1.84214 26.74571,3.75485 41.06273,11.60558 1.18279,0.64856 0.33175,0.81774 -1.98392,0.39432 -3.4641,-0.63336 -5.31753,0.095 -12.7142,4.99721 -4.76243,3.15628 -11.95067,7.80827 -15.97445,10.33702 l -7.31563,4.59821 -9.40902,-2.79544 c -5.17495,-1.53749 -9.67575,-3.24179 -10.00175,-3.78736 -0.32599,-0.54553 2.54399,-3.35324 6.37772,-6.23942 6.2593,-4.71223 9.73697,-6.44742 18.42226,-9.19236 1.4641,-0.46276 -0.23419,-0.92152 -3.77404,-1.01961 -5.44105,-0.15072 -7.88777,0.66757 -15.82594,5.29274 l -9.38986,5.471 4.2208,-6.17701 c 5.27411,-7.71849 10.32917,-11.89918 16.30532,-13.48492 l 1e-5,5e-5 z"
         id="path4034"
         inkscape:transform-center-y="0.65769694" />
      <path
         inkscape:transform-center-y="5.0319775"
         id="path4036"
         d="m 152.08153,474.86203 c -4.21731,3.69385 -8.81204,18.52565 -9.52733,30.75426 -0.0591,1.01025 0.41906,0.53502 1.11465,-1.10787 1.0406,-2.45763 2.32857,-3.35015 8.83584,-6.12218 4.18972,-1.78484 10.43683,-4.52313 13.88219,-6.08575 l 6.26448,-2.84073 2.08977,-7.10086 c 1.14938,-3.90546 1.8975,-7.44745 1.66246,-7.87108 -0.235,-0.42361 -3.38037,0.29352 -6.98972,1.5936 -5.89296,2.12262 -8.56215,3.65142 -14.13987,8.09829 -0.94028,0.7496 -0.5317,-0.51395 0.90788,-2.80798 2.2128,-3.5261 3.81494,-4.761 10.36288,-7.98768 l 7.7454,-3.81675 -6.02885,0.24414 c -7.53334,0.30508 -12.54951,1.87088 -16.17982,5.05059 l 3e-5,3e-5 z"
         style="fill:#552200;fill-opacity:1;stroke:none"
         inkscape:transform-center-x="1.6333197" />
      <path
         id="path4050"
         d="m 595.94094,691.65186 c -6.57425,1.16519 -45.35718,17.41432 -45.66353,19.13194 -0.0626,0.35083 2.50047,0.21887 5.69565,-0.29323 7.55036,-1.21012 17.4171,3.40485 31.38659,14.68059 5.8515,4.72311 13.05553,9.0185 16.00892,9.54529 6.68351,1.19208 20.77531,-2.64818 27.15727,-7.40084 l 4.8071,-3.57984 -12.19819,-7.43754 c -6.70898,-4.09068 -15.81183,-8.10872 -20.22854,-8.929 -6.57881,-1.22179 -7.34477,-1.74186 -4.23745,-2.87684 6.56361,-2.39745 19.15244,0.95092 30.5686,8.13063 6.05574,3.80848 10.87487,6.20637 10.70913,5.32865 -0.59396,-3.1463 -14.83831,-18.83825 -20.33318,-22.39962 -6.93171,-4.49268 -13.87514,-5.63663 -23.67237,-3.90019 z"
         style="fill:#008000;fill-opacity:1;stroke:none"
         inkscape:transform-center-x="44.44154"
         inkscape:transform-center-y="-14.746195" />
      <path
         inkscape:transform-center-y="-25.885564"
         style="fill:#552200;stroke:none"
         d="m 353.47889,634.67061 c -11.70299,-2.1593 -20.48934,1.43564 -41.88602,17.13772 l -8.82842,6.47875 6.01293,-1.45823 c 7.64972,-1.85516 13.73002,-0.24464 26.86105,7.11482 16.87229,9.45631 23.97934,11.5667 32.36457,9.61042 3.98844,-0.93052 9.67794,-3.69459 12.64331,-6.14241 l 5.39151,-4.45061 -2.71872,-1.76517 c -4.39638,-2.85375 -25.38975,-11.04291 -30.71881,-11.98289 -2.69855,-0.47598 -6.78136,-0.70697 -9.07292,-0.5133 l -4.16648,0.35211 4.5032,-1.74432 c 8.83429,-3.42196 21.29965,-1.07894 39.68595,7.45956 l 6.1294,2.84644 -4.70318,-4.16599 c -9.82881,-8.70615 -24.58203,-17.50136 -31.49724,-18.77728 l 0,0 z"
         id="path4063"
         inkscape:transform-center-x="19.652534" />
      <g
         id="g4067"
         transform="matrix(1.6041109,0,0,1.6041109,-490.4766,-222.2339)"
         style="fill:#552200">
        <path
           id="path4069"
           d="m 539.34961,570.80108 c -6.93415,0 -12.55869,5.62452 -12.55869,12.55867 0,6.93415 5.62454,12.55868 12.55869,12.55868 6.93415,0 12.55867,-5.62453 12.55867,-12.55868 0,-6.93415 -5.62452,-12.55867 -12.55867,-12.55867 z m 0,2.92603 c 5.31619,0 9.63263,4.31645 9.63263,9.63264 0,5.31619 -4.31644,9.63264 -9.63263,9.63264 -5.31619,0 -9.63264,-4.31645 -9.63264,-9.63264 0,-5.31619 4.31645,-9.63264 9.63264,-9.63264 z"
           style="fill:#552200;stroke:none" />
        <path
           transform="matrix(0.16714436,0,0,0.16714436,503.67854,502.48015)"
           d="m 237.38585,483.89883 c 0,13.24994 -10.74119,23.99113 -23.99112,23.99113 -13.24993,0 -23.99112,-10.74119 -23.99112,-23.99113 0,-13.24993 10.74119,-23.99112 23.99112,-23.99112 13.24993,0 23.99112,10.74119 23.99112,23.99112 z"
           sodipodi:ry="23.991123"
           sodipodi:rx="23.991123"
           sodipodi:cy="483.89883"
           sodipodi:cx="213.39473"
           id="path4071"
           style="fill:#552200;stroke:none"
           sodipodi:type="arc" />
      </g>
      <path
         inkscape:transform-center-y="-3.6853456"
         style="fill:#008000;stroke:none"
         d="m 442.24489,671.34014 c 9.28781,5.37781 13.20423,12.99099 18.67025,36.2934 l 2.25535,9.6147 -3.26738,-4.52322 c -4.15677,-5.7545 -9.26861,-8.21357 -22.58266,-10.86348 -17.10748,-3.4049 -23.21609,-6.12298 -27.81781,-12.3778 -2.1888,-2.97513 -4.46923,-8.20398 -5.06756,-11.6197 l -1.08782,-6.21035 2.89809,0.38314 c 4.68605,0.62005 23.87598,7.30856 28.0799,9.78705 2.1288,1.25508 5.06294,3.48929 6.52033,4.96491 l 2.6498,2.68295 -2.06479,-3.83464 c -4.05065,-7.5227 -13.96873,-13.2213 -31.57621,-18.1426 l -5.86976,-1.6406 5.66533,-0.0997 c 11.83954,-0.20838 27.10697,2.40793 32.59508,5.58563 l 0,0 z"
         id="path4083"
         inkscape:transform-center-x="-26.100947" />
    </g>
  </g>
</svg>
